solid OpenSCAD_Model
  facet normal -1 -0 0
    outer loop
      vertex -46 -22.6194 3.08658
      vertex -46 -44.5 0
      vertex -46 -23 5
    endloop
  endfacet
  facet normal -1 -0 0
    outer loop
      vertex -46 -21.5355 1.46447
      vertex -46 -44.5 0
      vertex -46 -22.6194 3.08658
    endloop
  endfacet
  facet normal -1 -0 0
    outer loop
      vertex -46 -19.9134 0.380602
      vertex -46 -44.5 0
      vertex -46 -21.5355 1.46447
    endloop
  endfacet
  facet normal -1 0 0
    outer loop
      vertex -46 -44.5 0
      vertex -46 -19.9134 0.380602
      vertex -46 -18 0
    endloop
  endfacet
  facet normal -1 0 0
    outer loop
      vertex -46 17.3806 3.08658
      vertex -46 -13 5
      vertex -46 17 5
    endloop
  endfacet
  facet normal -1 0 0
    outer loop
      vertex -46 -13.3806 3.08658
      vertex -46 17.3806 3.08658
      vertex -46 18.4645 1.46447
    endloop
  endfacet
  facet normal -1 0 0
    outer loop
      vertex -46 -14.4645 1.46447
      vertex -46 18.4645 1.46447
      vertex -46 20.0866 0.380602
    endloop
  endfacet
  facet normal -1 0 0
    outer loop
      vertex -46 -16.0866 0.380602
      vertex -46 20.0866 0.380602
      vertex -46 22 0
    endloop
  endfacet
  facet normal -1 0 0
    outer loop
      vertex -46 17.3806 3.08658
      vertex -46 -13.3806 3.08658
      vertex -46 -13 5
    endloop
  endfacet
  facet normal -1 0 0
    outer loop
      vertex -46 18.4645 1.46447
      vertex -46 -14.4645 1.46447
      vertex -46 -13.3806 3.08658
    endloop
  endfacet
  facet normal -1 0 0
    outer loop
      vertex -46 20.0866 0.380602
      vertex -46 -16.0866 0.380602
      vertex -46 -14.4645 1.46447
    endloop
  endfacet
  facet normal -1 0 -0
    outer loop
      vertex -46 -16.0866 0.380602
      vertex -46 22 0
      vertex -46 -18 0
    endloop
  endfacet
  facet normal -1 0 0
    outer loop
      vertex -46 50.5 0
      vertex -46 27 5
      vertex -46 50.5 15
    endloop
  endfacet
  facet normal -1 0 0
    outer loop
      vertex -46 50.5 0
      vertex -46 26.6194 3.08658
      vertex -46 27 5
    endloop
  endfacet
  facet normal -1 0 0
    outer loop
      vertex -46 50.5 0
      vertex -46 25.5355 1.46447
      vertex -46 26.6194 3.08658
    endloop
  endfacet
  facet normal -1 0 0
    outer loop
      vertex -46 50.5 0
      vertex -46 23.9134 0.380602
      vertex -46 25.5355 1.46447
    endloop
  endfacet
  facet normal -1 0 -0
    outer loop
      vertex -46 23.9134 0.380602
      vertex -46 50.5 0
      vertex -46 22 0
    endloop
  endfacet
  facet normal -1 0 0
    outer loop
      vertex -46 26.6194 6.91342
      vertex -46 50.5 15
      vertex -46 27 5
    endloop
  endfacet
  facet normal -1 0 0
    outer loop
      vertex -46 25.5355 8.53553
      vertex -46 50.5 15
      vertex -46 26.6194 6.91342
    endloop
  endfacet
  facet normal -1 0 0
    outer loop
      vertex -46 23.9134 9.6194
      vertex -46 50.5 15
      vertex -46 25.5355 8.53553
    endloop
  endfacet
  facet normal -1 0 0
    outer loop
      vertex -46 22 10
      vertex -46 50.5 15
      vertex -46 23.9134 9.6194
    endloop
  endfacet
  facet normal -1 0 0
    outer loop
      vertex -46 -13 5
      vertex -46 17.3806 6.91342
      vertex -46 17 5
    endloop
  endfacet
  facet normal -1 0 0
    outer loop
      vertex -46 -13.3806 6.91342
      vertex -46 17.3806 6.91342
      vertex -46 -13 5
    endloop
  endfacet
  facet normal -1 0 0
    outer loop
      vertex -46 17.3806 6.91342
      vertex -46 -13.3806 6.91342
      vertex -46 18.4645 8.53553
    endloop
  endfacet
  facet normal -1 0 0
    outer loop
      vertex -46 -14.4645 8.53553
      vertex -46 18.4645 8.53553
      vertex -46 -13.3806 6.91342
    endloop
  endfacet
  facet normal -1 0 0
    outer loop
      vertex -46 18.4645 8.53553
      vertex -46 -14.4645 8.53553
      vertex -46 20.0866 9.6194
    endloop
  endfacet
  facet normal -1 0 0
    outer loop
      vertex -46 -16.0866 9.6194
      vertex -46 20.0866 9.6194
      vertex -46 -14.4645 8.53553
    endloop
  endfacet
  facet normal -1 0 0
    outer loop
      vertex -46 20.0866 9.6194
      vertex -46 -16.0866 9.6194
      vertex -46 22 10
    endloop
  endfacet
  facet normal -1 0 0
    outer loop
      vertex -46 -18 10
      vertex -46 22 10
      vertex -46 -16.0866 9.6194
    endloop
  endfacet
  facet normal -1 0 0
    outer loop
      vertex -46 -44.5 15
      vertex -46 22 10
      vertex -46 -18 10
    endloop
  endfacet
  facet normal -1 0 0
    outer loop
      vertex -46 -44.5 15
      vertex -46 -23 5
      vertex -46 -44.5 0
    endloop
  endfacet
  facet normal -1 0 0
    outer loop
      vertex -46 -23 5
      vertex -46 -44.5 15
      vertex -46 -22.6194 6.91342
    endloop
  endfacet
  facet normal -1 0 0
    outer loop
      vertex -46 -22.6194 6.91342
      vertex -46 -44.5 15
      vertex -46 -21.5355 8.53553
    endloop
  endfacet
  facet normal -1 0 0
    outer loop
      vertex -46 22 10
      vertex -46 -44.5 15
      vertex -46 50.5 15
    endloop
  endfacet
  facet normal -1 0 0
    outer loop
      vertex -46 -19.9134 9.6194
      vertex -46 -44.5 15
      vertex -46 -18 10
    endloop
  endfacet
  facet normal -1 0 0
    outer loop
      vertex -46 -21.5355 8.53553
      vertex -46 -44.5 15
      vertex -46 -19.9134 9.6194
    endloop
  endfacet
  facet normal 0 0 1
    outer loop
      vertex 58 50.5 15
      vertex 56 49 15
      vertex 58 -44.5 15
    endloop
  endfacet
  facet normal -0 0 1
    outer loop
      vertex -46 50.5 15
      vertex 56 49 15
      vertex 58 50.5 15
    endloop
  endfacet
  facet normal 0 0 1
    outer loop
      vertex -45 49 15
      vertex -46 50.5 15
      vertex -45 -43 15
    endloop
  endfacet
  facet normal 0 0 1
    outer loop
      vertex 56 49 15
      vertex -46 50.5 15
      vertex -45 49 15
    endloop
  endfacet
  facet normal -0 0 1
    outer loop
      vertex 56 -43 15
      vertex 58 -44.5 15
      vertex 56 49 15
    endloop
  endfacet
  facet normal 0 0 1
    outer loop
      vertex -46 -44.5 15
      vertex 56 -43 15
      vertex -45 -43 15
    endloop
  endfacet
  facet normal 0 0 1
    outer loop
      vertex 56 -43 15
      vertex -46 -44.5 15
      vertex 58 -44.5 15
    endloop
  endfacet
  facet normal 0 0 1
    outer loop
      vertex -46 -44.5 15
      vertex -45 -43 15
      vertex -46 50.5 15
    endloop
  endfacet
  facet normal 1 -0 0
    outer loop
      vertex 58 -44.5 15
      vertex 58 50.5 0
      vertex 58 50.5 15
    endloop
  endfacet
  facet normal 1 0 0
    outer loop
      vertex 58 50.5 0
      vertex 58 -44.5 15
      vertex 58 -44.5 0
    endloop
  endfacet
  facet normal 0 0 1
    outer loop
      vertex 58 -44.5 0
      vertex 90 70 0
      vertex 58 50.5 0
    endloop
  endfacet
  facet normal 0 0 1
    outer loop
      vertex 90 70 0
      vertex -46 50.5 0
      vertex 58 50.5 0
    endloop
  endfacet
  facet normal 0 0 1
    outer loop
      vertex -90 22 0
      vertex -46 22 0
      vertex -46 50.5 0
    endloop
  endfacet
  facet normal 0 0 1
    outer loop
      vertex -46 22 0
      vertex -90 22 0
      vertex -46 -18 0
    endloop
  endfacet
  facet normal 0 0 1
    outer loop
      vertex -90 22 0
      vertex -46 50.5 0
      vertex -90 70 0
    endloop
  endfacet
  facet normal -0 0 1
    outer loop
      vertex -90 70 0
      vertex -46 50.5 0
      vertex 90 70 0
    endloop
  endfacet
  facet normal 0 0 1
    outer loop
      vertex 90 70 0
      vertex 58 -44.5 0
      vertex 90 -70 0
    endloop
  endfacet
  facet normal -0 0 1
    outer loop
      vertex -46 -44.5 0
      vertex 90 -70 0
      vertex 58 -44.5 0
    endloop
  endfacet
  facet normal 0 0 1
    outer loop
      vertex -90 -18 0
      vertex -46 -18 0
      vertex -90 22 0
    endloop
  endfacet
  facet normal 0 0 1
    outer loop
      vertex -46 -18 0
      vertex -90 -18 0
      vertex -46 -44.5 0
    endloop
  endfacet
  facet normal 0 0 1
    outer loop
      vertex -46 -44.5 0
      vertex -90 -70 0
      vertex 90 -70 0
    endloop
  endfacet
  facet normal 0 0 1
    outer loop
      vertex -90 -70 0
      vertex -46 -44.5 0
      vertex -90 -18 0
    endloop
  endfacet
  facet normal 0 0 1
    outer loop
      vertex -45 22 0
      vertex 56 49 0
      vertex -45 49 0
    endloop
  endfacet
  facet normal 0 0 1
    outer loop
      vertex 56 49 0
      vertex -45 22 0
      vertex 56 -43 0
    endloop
  endfacet
  facet normal -0 0 1
    outer loop
      vertex -45 -18 0
      vertex 56 -43 0
      vertex -45 22 0
    endloop
  endfacet
  facet normal 0 0 1
    outer loop
      vertex 56 -43 0
      vertex -45 -18 0
      vertex -45 -43 0
    endloop
  endfacet
  facet normal 0 -1 0
    outer loop
      vertex -46 -44.5 0
      vertex 58 -44.5 15
      vertex -46 -44.5 15
    endloop
  endfacet
  facet normal 0 -1 -0
    outer loop
      vertex 58 -44.5 15
      vertex -46 -44.5 0
      vertex 58 -44.5 0
    endloop
  endfacet
  facet normal 0 1 -0
    outer loop
      vertex 58 50.5 0
      vertex -46 50.5 15
      vertex 58 50.5 15
    endloop
  endfacet
  facet normal 0 1 0
    outer loop
      vertex -46 50.5 15
      vertex 58 50.5 0
      vertex -46 50.5 0
    endloop
  endfacet
  facet normal 1 -0 0
    outer loop
      vertex -45 -13 5
      vertex -45 17.3806 3.08658
      vertex -45 17 5
    endloop
  endfacet
  facet normal 1 0 0
    outer loop
      vertex -45 -13.3806 3.08658
      vertex -45 17.3806 3.08658
      vertex -45 -13 5
    endloop
  endfacet
  facet normal 1 0 0
    outer loop
      vertex -45 17.3806 3.08658
      vertex -45 -13.3806 3.08658
      vertex -45 18.4645 1.46447
    endloop
  endfacet
  facet normal 1 0 0
    outer loop
      vertex -45 -14.4645 1.46447
      vertex -45 18.4645 1.46447
      vertex -45 -13.3806 3.08658
    endloop
  endfacet
  facet normal 1 0 0
    outer loop
      vertex -45 18.4645 1.46447
      vertex -45 -14.4645 1.46447
      vertex -45 20.0866 0.380602
    endloop
  endfacet
  facet normal 1 0 0
    outer loop
      vertex -45 -16.0866 0.380602
      vertex -45 20.0866 0.380602
      vertex -45 -14.4645 1.46447
    endloop
  endfacet
  facet normal 1 0 0
    outer loop
      vertex -45 20.0866 0.380602
      vertex -45 -16.0866 0.380602
      vertex -45 22 0
    endloop
  endfacet
  facet normal 1 0 0
    outer loop
      vertex -45 22 0
      vertex -45 -16.0866 0.380602
      vertex -45 -18 0
    endloop
  endfacet
  facet normal 1 0 0
    outer loop
      vertex -45 49 15
      vertex -45 27 5
      vertex -45 49 0
    endloop
  endfacet
  facet normal 1 0 0
    outer loop
      vertex -45 49 15
      vertex -45 26.6194 6.91342
      vertex -45 27 5
    endloop
  endfacet
  facet normal 1 0 0
    outer loop
      vertex -45 49 15
      vertex -45 25.5355 8.53553
      vertex -45 26.6194 6.91342
    endloop
  endfacet
  facet normal 1 0 0
    outer loop
      vertex -45 49 15
      vertex -45 23.9134 9.6194
      vertex -45 25.5355 8.53553
    endloop
  endfacet
  facet normal 1 0 0
    outer loop
      vertex -45 49 15
      vertex -45 22 10
      vertex -45 23.9134 9.6194
    endloop
  endfacet
  facet normal 1 0 0
    outer loop
      vertex -45 17.3806 6.91342
      vertex -45 -13 5
      vertex -45 17 5
    endloop
  endfacet
  facet normal 1 0 0
    outer loop
      vertex -45 -13.3806 6.91342
      vertex -45 17.3806 6.91342
      vertex -45 18.4645 8.53553
    endloop
  endfacet
  facet normal 1 0 0
    outer loop
      vertex -45 -14.4645 8.53553
      vertex -45 18.4645 8.53553
      vertex -45 20.0866 9.6194
    endloop
  endfacet
  facet normal 1 0 0
    outer loop
      vertex -45 -16.0866 9.6194
      vertex -45 20.0866 9.6194
      vertex -45 22 10
    endloop
  endfacet
  facet normal 1 -0 0
    outer loop
      vertex -45 -43 15
      vertex -45 22 10
      vertex -45 49 15
    endloop
  endfacet
  facet normal 1 0 0
    outer loop
      vertex -45 17.3806 6.91342
      vertex -45 -13.3806 6.91342
      vertex -45 -13 5
    endloop
  endfacet
  facet normal 1 0 0
    outer loop
      vertex -45 18.4645 8.53553
      vertex -45 -14.4645 8.53553
      vertex -45 -13.3806 6.91342
    endloop
  endfacet
  facet normal 1 0 0
    outer loop
      vertex -45 20.0866 9.6194
      vertex -45 -16.0866 9.6194
      vertex -45 -14.4645 8.53553
    endloop
  endfacet
  facet normal 1 0 0
    outer loop
      vertex -45 22 10
      vertex -45 -18 10
      vertex -45 -16.0866 9.6194
    endloop
  endfacet
  facet normal 1 0 0
    outer loop
      vertex -45 -22.6194 6.91342
      vertex -45 -43 15
      vertex -45 -23 5
    endloop
  endfacet
  facet normal 1 0 0
    outer loop
      vertex -45 -21.5355 8.53553
      vertex -45 -43 15
      vertex -45 -22.6194 6.91342
    endloop
  endfacet
  facet normal 1 0 0
    outer loop
      vertex -45 -19.9134 9.6194
      vertex -45 -43 15
      vertex -45 -21.5355 8.53553
    endloop
  endfacet
  facet normal 1 0 0
    outer loop
      vertex -45 -18 10
      vertex -45 -43 15
      vertex -45 -19.9134 9.6194
    endloop
  endfacet
  facet normal 1 0 0
    outer loop
      vertex -45 22 10
      vertex -45 -43 15
      vertex -45 -18 10
    endloop
  endfacet
  facet normal 1 -0 0
    outer loop
      vertex -45 26.6194 3.08658
      vertex -45 49 0
      vertex -45 27 5
    endloop
  endfacet
  facet normal 1 -0 0
    outer loop
      vertex -45 25.5355 1.46447
      vertex -45 49 0
      vertex -45 26.6194 3.08658
    endloop
  endfacet
  facet normal 1 -0 0
    outer loop
      vertex -45 23.9134 0.380602
      vertex -45 49 0
      vertex -45 25.5355 1.46447
    endloop
  endfacet
  facet normal 1 0 0
    outer loop
      vertex -45 49 0
      vertex -45 23.9134 0.380602
      vertex -45 22 0
    endloop
  endfacet
  facet normal 1 0 0
    outer loop
      vertex -45 -43 0
      vertex -45 -23 5
      vertex -45 -43 15
    endloop
  endfacet
  facet normal 1 0 0
    outer loop
      vertex -45 -23 5
      vertex -45 -43 0
      vertex -45 -22.6194 3.08658
    endloop
  endfacet
  facet normal 1 0 0
    outer loop
      vertex -45 -22.6194 3.08658
      vertex -45 -43 0
      vertex -45 -21.5355 1.46447
    endloop
  endfacet
  facet normal 1 0 0
    outer loop
      vertex -45 -19.9134 0.380602
      vertex -45 -43 0
      vertex -45 -18 0
    endloop
  endfacet
  facet normal 1 0 0
    outer loop
      vertex -45 -21.5355 1.46447
      vertex -45 -43 0
      vertex -45 -19.9134 0.380602
    endloop
  endfacet
  facet normal -1 0 0
    outer loop
      vertex 56 -43 0
      vertex 56 49 15
      vertex 56 49 0
    endloop
  endfacet
  facet normal -1 -0 0
    outer loop
      vertex 56 49 15
      vertex 56 -43 0
      vertex 56 -43 15
    endloop
  endfacet
  facet normal 0 1 -0
    outer loop
      vertex 56 -43 0
      vertex -45 -43 15
      vertex 56 -43 15
    endloop
  endfacet
  facet normal 0 1 0
    outer loop
      vertex -45 -43 15
      vertex 56 -43 0
      vertex -45 -43 0
    endloop
  endfacet
  facet normal 0 -1 0
    outer loop
      vertex -45 49 0
      vertex 56 49 15
      vertex -45 49 15
    endloop
  endfacet
  facet normal 0 -1 -0
    outer loop
      vertex 56 49 15
      vertex -45 49 0
      vertex 56 49 0
    endloop
  endfacet
  facet normal 0 -0.195091 -0.980785
    outer loop
      vertex -46 -18 10
      vertex -45 -16.0866 9.6194
      vertex -45 -18 10
    endloop
  endfacet
  facet normal -0 -0.195091 -0.980785
    outer loop
      vertex -45 -16.0866 9.6194
      vertex -46 -18 10
      vertex -46 -16.0866 9.6194
    endloop
  endfacet
  facet normal 0 -0.980786 0.195089
    outer loop
      vertex -46 -13.3806 3.08658
      vertex -45 -13 5
      vertex -46 -13 5
    endloop
  endfacet
  facet normal 0 -0.980786 0.195089
    outer loop
      vertex -45 -13 5
      vertex -46 -13.3806 3.08658
      vertex -45 -13.3806 3.08658
    endloop
  endfacet
  facet normal 0 -0.83146 -0.555585
    outer loop
      vertex -46 -13.3806 6.91342
      vertex -45 -14.4645 8.53553
      vertex -46 -14.4645 8.53553
    endloop
  endfacet
  facet normal 0 -0.83146 -0.555585
    outer loop
      vertex -45 -14.4645 8.53553
      vertex -46 -13.3806 6.91342
      vertex -45 -13.3806 6.91342
    endloop
  endfacet
  facet normal 0 0.980786 -0.195089
    outer loop
      vertex -45 -23 5
      vertex -46 -22.6194 6.91342
      vertex -45 -22.6194 6.91342
    endloop
  endfacet
  facet normal 0 0.980786 -0.195089
    outer loop
      vertex -46 -22.6194 6.91342
      vertex -45 -23 5
      vertex -46 -23 5
    endloop
  endfacet
  facet normal -0 0.195092 0.980785
    outer loop
      vertex -46 -18 0
      vertex -45 -19.9134 0.380602
      vertex -45 -18 0
    endloop
  endfacet
  facet normal 0 0.195092 0.980785
    outer loop
      vertex -45 -19.9134 0.380602
      vertex -46 -18 0
      vertex -46 -19.9134 0.380602
    endloop
  endfacet
  facet normal 0 -0.555576 0.831466
    outer loop
      vertex -46 -14.4645 1.46447
      vertex -45 -16.0866 0.380602
      vertex -45 -14.4645 1.46447
    endloop
  endfacet
  facet normal 0 -0.555576 0.831466
    outer loop
      vertex -45 -16.0866 0.380602
      vertex -46 -14.4645 1.46447
      vertex -46 -16.0866 0.380602
    endloop
  endfacet
  facet normal 0 -0.980786 -0.195089
    outer loop
      vertex -46 -13 5
      vertex -45 -13.3806 6.91342
      vertex -46 -13.3806 6.91342
    endloop
  endfacet
  facet normal 0 -0.980786 -0.195089
    outer loop
      vertex -45 -13.3806 6.91342
      vertex -46 -13 5
      vertex -45 -13 5
    endloop
  endfacet
  facet normal 0 -0.555576 -0.831465
    outer loop
      vertex -46 -16.0866 9.6194
      vertex -45 -14.4645 8.53553
      vertex -45 -16.0866 9.6194
    endloop
  endfacet
  facet normal -0 -0.555576 -0.831465
    outer loop
      vertex -45 -14.4645 8.53553
      vertex -46 -16.0866 9.6194
      vertex -46 -14.4645 8.53553
    endloop
  endfacet
  facet normal 0 0.83146 0.555585
    outer loop
      vertex -45 -21.5355 1.46447
      vertex -46 -22.6194 3.08658
      vertex -45 -22.6194 3.08658
    endloop
  endfacet
  facet normal 0 0.83146 0.555585
    outer loop
      vertex -46 -22.6194 3.08658
      vertex -45 -21.5355 1.46447
      vertex -46 -21.5355 1.46447
    endloop
  endfacet
  facet normal 0 0.980786 0.195089
    outer loop
      vertex -45 -22.6194 3.08658
      vertex -46 -23 5
      vertex -45 -23 5
    endloop
  endfacet
  facet normal 0 0.980786 0.195089
    outer loop
      vertex -46 -23 5
      vertex -45 -22.6194 3.08658
      vertex -46 -22.6194 3.08658
    endloop
  endfacet
  facet normal -0 0.555576 0.831466
    outer loop
      vertex -46 -19.9134 0.380602
      vertex -45 -21.5355 1.46447
      vertex -45 -19.9134 0.380602
    endloop
  endfacet
  facet normal 0 0.555576 0.831466
    outer loop
      vertex -45 -21.5355 1.46447
      vertex -46 -19.9134 0.380602
      vertex -46 -21.5355 1.46447
    endloop
  endfacet
  facet normal 0 0.195091 -0.980785
    outer loop
      vertex -46 -19.9134 9.6194
      vertex -45 -18 10
      vertex -45 -19.9134 9.6194
    endloop
  endfacet
  facet normal 0 0.195091 -0.980785
    outer loop
      vertex -45 -18 10
      vertex -46 -19.9134 9.6194
      vertex -46 -18 10
    endloop
  endfacet
  facet normal 0 0.555576 -0.831465
    outer loop
      vertex -46 -21.5355 8.53553
      vertex -45 -19.9134 9.6194
      vertex -45 -21.5355 8.53553
    endloop
  endfacet
  facet normal 0 0.555576 -0.831465
    outer loop
      vertex -45 -19.9134 9.6194
      vertex -46 -21.5355 8.53553
      vertex -46 -19.9134 9.6194
    endloop
  endfacet
  facet normal 0 -0.83146 0.555585
    outer loop
      vertex -46 -14.4645 1.46447
      vertex -45 -13.3806 3.08658
      vertex -46 -13.3806 3.08658
    endloop
  endfacet
  facet normal 0 -0.83146 0.555585
    outer loop
      vertex -45 -13.3806 3.08658
      vertex -46 -14.4645 1.46447
      vertex -45 -14.4645 1.46447
    endloop
  endfacet
  facet normal 0 -0.195092 0.980785
    outer loop
      vertex -46 -16.0866 0.380602
      vertex -45 -18 0
      vertex -45 -16.0866 0.380602
    endloop
  endfacet
  facet normal 0 -0.195092 0.980785
    outer loop
      vertex -45 -18 0
      vertex -46 -16.0866 0.380602
      vertex -46 -18 0
    endloop
  endfacet
  facet normal 0 0.83146 -0.555585
    outer loop
      vertex -45 -22.6194 6.91342
      vertex -46 -21.5355 8.53553
      vertex -45 -21.5355 8.53553
    endloop
  endfacet
  facet normal 0 0.83146 -0.555585
    outer loop
      vertex -46 -21.5355 8.53553
      vertex -45 -22.6194 6.91342
      vertex -46 -22.6194 6.91342
    endloop
  endfacet
  facet normal 0 -0.195092 0.980785
    outer loop
      vertex -46 23.9134 0.380602
      vertex -45 22 0
      vertex -45 23.9134 0.380602
    endloop
  endfacet
  facet normal 0 -0.195092 0.980785
    outer loop
      vertex -45 22 0
      vertex -46 23.9134 0.380602
      vertex -46 22 0
    endloop
  endfacet
  facet normal 0 -0.195091 -0.980785
    outer loop
      vertex -46 22 10
      vertex -45 23.9134 9.6194
      vertex -45 22 10
    endloop
  endfacet
  facet normal -0 -0.195091 -0.980785
    outer loop
      vertex -45 23.9134 9.6194
      vertex -46 22 10
      vertex -46 23.9134 9.6194
    endloop
  endfacet
  facet normal 0 -0.555576 0.831466
    outer loop
      vertex -46 25.5355 1.46447
      vertex -45 23.9134 0.380602
      vertex -45 25.5355 1.46447
    endloop
  endfacet
  facet normal 0 -0.555576 0.831466
    outer loop
      vertex -45 23.9134 0.380602
      vertex -46 25.5355 1.46447
      vertex -46 23.9134 0.380602
    endloop
  endfacet
  facet normal 0 -0.83146 0.555585
    outer loop
      vertex -46 25.5355 1.46447
      vertex -45 26.6194 3.08658
      vertex -46 26.6194 3.08658
    endloop
  endfacet
  facet normal 0 -0.83146 0.555585
    outer loop
      vertex -45 26.6194 3.08658
      vertex -46 25.5355 1.46447
      vertex -45 25.5355 1.46447
    endloop
  endfacet
  facet normal 0 -0.980786 -0.195089
    outer loop
      vertex -46 27 5
      vertex -45 26.6194 6.91342
      vertex -46 26.6194 6.91342
    endloop
  endfacet
  facet normal 0 -0.980786 -0.195089
    outer loop
      vertex -45 26.6194 6.91342
      vertex -46 27 5
      vertex -45 27 5
    endloop
  endfacet
  facet normal 0 -0.83146 -0.555585
    outer loop
      vertex -46 26.6194 6.91342
      vertex -45 25.5355 8.53553
      vertex -46 25.5355 8.53553
    endloop
  endfacet
  facet normal 0 -0.83146 -0.555585
    outer loop
      vertex -45 25.5355 8.53553
      vertex -46 26.6194 6.91342
      vertex -45 26.6194 6.91342
    endloop
  endfacet
  facet normal 0 -0.980786 0.195089
    outer loop
      vertex -46 26.6194 3.08658
      vertex -45 27 5
      vertex -46 27 5
    endloop
  endfacet
  facet normal 0 -0.980786 0.195089
    outer loop
      vertex -45 27 5
      vertex -46 26.6194 3.08658
      vertex -45 26.6194 3.08658
    endloop
  endfacet
  facet normal 0 -0.555576 -0.831465
    outer loop
      vertex -46 23.9134 9.6194
      vertex -45 25.5355 8.53553
      vertex -45 23.9134 9.6194
    endloop
  endfacet
  facet normal -0 -0.555576 -0.831465
    outer loop
      vertex -45 25.5355 8.53553
      vertex -46 23.9134 9.6194
      vertex -46 25.5355 8.53553
    endloop
  endfacet
  facet normal 0 0.83146 0.555585
    outer loop
      vertex -45 18.4645 1.46447
      vertex -46 17.3806 3.08658
      vertex -45 17.3806 3.08658
    endloop
  endfacet
  facet normal 0 0.83146 0.555585
    outer loop
      vertex -46 17.3806 3.08658
      vertex -45 18.4645 1.46447
      vertex -46 18.4645 1.46447
    endloop
  endfacet
  facet normal -0 0.555576 0.831466
    outer loop
      vertex -46 20.0866 0.380602
      vertex -45 18.4645 1.46447
      vertex -45 20.0866 0.380602
    endloop
  endfacet
  facet normal 0 0.555576 0.831466
    outer loop
      vertex -45 18.4645 1.46447
      vertex -46 20.0866 0.380602
      vertex -46 18.4645 1.46447
    endloop
  endfacet
  facet normal -0 0.195092 0.980785
    outer loop
      vertex -46 22 0
      vertex -45 20.0866 0.380602
      vertex -45 22 0
    endloop
  endfacet
  facet normal 0 0.195092 0.980785
    outer loop
      vertex -45 20.0866 0.380602
      vertex -46 22 0
      vertex -46 20.0866 0.380602
    endloop
  endfacet
  facet normal 0 0.83146 -0.555585
    outer loop
      vertex -45 17.3806 6.91342
      vertex -46 18.4645 8.53553
      vertex -45 18.4645 8.53553
    endloop
  endfacet
  facet normal 0 0.83146 -0.555585
    outer loop
      vertex -46 18.4645 8.53553
      vertex -45 17.3806 6.91342
      vertex -46 17.3806 6.91342
    endloop
  endfacet
  facet normal 0 0.555576 -0.831465
    outer loop
      vertex -46 18.4645 8.53553
      vertex -45 20.0866 9.6194
      vertex -45 18.4645 8.53553
    endloop
  endfacet
  facet normal 0 0.555576 -0.831465
    outer loop
      vertex -45 20.0866 9.6194
      vertex -46 18.4645 8.53553
      vertex -46 20.0866 9.6194
    endloop
  endfacet
  facet normal 0 0.195091 -0.980785
    outer loop
      vertex -46 20.0866 9.6194
      vertex -45 22 10
      vertex -45 20.0866 9.6194
    endloop
  endfacet
  facet normal 0 0.195091 -0.980785
    outer loop
      vertex -45 22 10
      vertex -46 20.0866 9.6194
      vertex -46 22 10
    endloop
  endfacet
  facet normal 0 0.980786 0.195089
    outer loop
      vertex -45 17.3806 3.08658
      vertex -46 17 5
      vertex -45 17 5
    endloop
  endfacet
  facet normal 0 0.980786 0.195089
    outer loop
      vertex -46 17 5
      vertex -45 17.3806 3.08658
      vertex -46 17.3806 3.08658
    endloop
  endfacet
  facet normal 0 0.980786 -0.195089
    outer loop
      vertex -45 17 5
      vertex -46 17.3806 6.91342
      vertex -45 17.3806 6.91342
    endloop
  endfacet
  facet normal 0 0.980786 -0.195089
    outer loop
      vertex -46 17.3806 6.91342
      vertex -45 17 5
      vertex -46 17 5
    endloop
  endfacet
  facet normal 0.823156 -0.396421 0.406528
    outer loop
      vertex 82.0738 -62.3664 30
      vertex 91.8478 -70 2.76537
      vertex 82.7695 -60.9218 30
    endloop
  endfacet
  facet normal 0.823156 -0.396421 0.406528
    outer loop
      vertex 91.8478 -70 2.76537
      vertex 82.0738 -62.3664 30
      vertex 91.1521 -71.4446 2.76537
    endloop
  endfacet
  facet normal -0.463216 -0.580862 -0.669351
    outer loop
      vertex -90.4112 -71.8014 -0.765367
      vertex -91.6648 -70.8017 -0.765367
      vertex -90.6896 -70.3321 -1.84776
    endloop
  endfacet
  facet normal -0.564607 -0.708004 0.424203
    outer loop
      vertex -90.4112 -71.8014 2.76537
      vertex -82.5866 -61.7235 30
      vertex -91.6648 -70.8017 2.76537
    endloop
  endfacet
  facet normal -0.564607 -0.708004 0.424203
    outer loop
      vertex -82.5866 -61.7235 30
      vertex -90.4112 -71.8014 2.76537
      vertex -81.333 -62.7232 30
    endloop
  endfacet
  facet normal 1 -0 0
    outer loop
      vertex 91.8478 -70 2.76537
      vertex 91.8478 70 -0.765367
      vertex 91.8478 70 2.76537
    endloop
  endfacet
  facet normal 1 0 0
    outer loop
      vertex 91.8478 70 -0.765367
      vertex 91.8478 -70 2.76537
      vertex 91.8478 -70 -0.765367
    endloop
  endfacet
  facet normal 0 0 -1
    outer loop
      vertex 89.8297 -70.7462 -1.84776
      vertex 90.7654 -70 -1.84776
      vertex 90.4772 -70.5984 -1.84776
    endloop
  endfacet
  facet normal -0 0 -1
    outer loop
      vertex 90.7654 -70 -1.84776
      vertex 89.8297 -70.7462 -1.84776
      vertex 90.7654 70 -1.84776
    endloop
  endfacet
  facet normal 0 0 -1
    outer loop
      vertex 89.8297 70.7462 -1.84776
      vertex 90.7654 70 -1.84776
      vertex 89.8297 -70.7462 -1.84776
    endloop
  endfacet
  facet normal 0 0 -1
    outer loop
      vertex 90.7654 70 -1.84776
      vertex 89.8297 70.7462 -1.84776
      vertex 90.4772 70.5984 -1.84776
    endloop
  endfacet
  facet normal 0 0 -1
    outer loop
      vertex -90.1703 -70.7462 -1.84776
      vertex 89.8297 70.7462 -1.84776
      vertex 89.8297 -70.7462 -1.84776
    endloop
  endfacet
  facet normal 0 0 -1
    outer loop
      vertex -90.1703 -70.7462 -1.84776
      vertex -90.1703 70.7462 -1.84776
      vertex 89.8297 70.7462 -1.84776
    endloop
  endfacet
  facet normal 0 0 -1
    outer loop
      vertex -90.6896 -70.3321 -1.84776
      vertex -90.1703 70.7462 -1.84776
      vertex -90.1703 -70.7462 -1.84776
    endloop
  endfacet
  facet normal 0 0 -1
    outer loop
      vertex -90.1703 70.7462 -1.84776
      vertex -90.6896 -70.3321 -1.84776
      vertex -90.6896 70.3321 -1.84776
    endloop
  endfacet
  facet normal 0.222513 -0.97493 0
    outer loop
      vertex 89.5888 -71.8014 -0.765367
      vertex 91.1521 -71.4446 2.76537
      vertex 89.5888 -71.8014 2.76537
    endloop
  endfacet
  facet normal 0.222513 -0.97493 0
    outer loop
      vertex 91.1521 -71.4446 2.76537
      vertex 89.5888 -71.8014 -0.765367
      vertex 91.1521 -71.4446 -0.765367
    endloop
  endfacet
  facet normal -0.564607 0.708004 0.424203
    outer loop
      vertex -90.4112 71.8014 2.76537
      vertex -82.5866 61.7235 30
      vertex -81.333 62.7232 30
    endloop
  endfacet
  facet normal -0.564607 0.708004 0.424203
    outer loop
      vertex -82.5866 61.7235 30
      vertex -90.4112 71.8014 2.76537
      vertex -91.6648 70.8017 2.76537
    endloop
  endfacet
  facet normal 0.165316 0.724325 -0.669346
    outer loop
      vertex 90.4772 70.5984 -1.84776
      vertex 89.5888 71.8014 -0.765367
      vertex 91.1521 71.4446 -0.765367
    endloop
  endfacet
  facet normal 0.900965 0.433893 0
    outer loop
      vertex 91.8478 70 2.76537
      vertex 91.1521 71.4446 -0.765367
      vertex 91.1521 71.4446 2.76537
    endloop
  endfacet
  facet normal 0.900965 0.433893 0
    outer loop
      vertex 91.1521 71.4446 -0.765367
      vertex 91.8478 70 2.76537
      vertex 91.8478 70 -0.765367
    endloop
  endfacet
  facet normal 0.948682 -0 0.316231
    outer loop
      vertex 82.7695 -60.9218 30
      vertex 91.8478 70 2.76537
      vertex 82.7695 60.9218 30
    endloop
  endfacet
  facet normal 0.948682 0 0.316231
    outer loop
      vertex 91.8478 70 2.76537
      vertex 82.7695 -60.9218 30
      vertex 91.8478 -70 2.76537
    endloop
  endfacet
  facet normal 0.222513 0.97493 -0
    outer loop
      vertex 91.1521 71.4446 -0.765367
      vertex 89.5888 71.8014 2.76537
      vertex 91.1521 71.4446 2.76537
    endloop
  endfacet
  facet normal 0.222513 0.97493 0
    outer loop
      vertex 89.5888 71.8014 2.76537
      vertex 91.1521 71.4446 -0.765367
      vertex 89.5888 71.8014 -0.765367
    endloop
  endfacet
  facet normal -0.948684 6.11908e-07 0.316225
    outer loop
      vertex -91.6648 -70.8017 2.76537
      vertex -90.9199 -23 5
      vertex -91.5577 -22.6194 3.08658
    endloop
  endfacet
  facet normal -0.948657 0 0.316308
    outer loop
      vertex -91.6648 -70.8017 2.76537
      vertex -91.5577 -22.6194 3.08658
      vertex -91.6648 -22.4048 2.76537
    endloop
  endfacet
  facet normal -0.948683 4.86951e-07 0.316227
    outer loop
      vertex -90.9199 -23 5
      vertex -91.6648 -70.8017 2.76537
      vertex -82.5866 -61.7235 30
    endloop
  endfacet
  facet normal -0.948684 0 0.316225
    outer loop
      vertex -91.5577 17.3806 3.08658
      vertex -90.9199 -13 5
      vertex -90.9199 17 5
    endloop
  endfacet
  facet normal -0.948657 0 0.316308
    outer loop
      vertex -91.5577 -13.3806 3.08658
      vertex -91.5577 17.3806 3.08658
      vertex -91.6648 17.5952 2.76537
    endloop
  endfacet
  facet normal -0.948684 0 0.316225
    outer loop
      vertex -91.5577 17.3806 3.08658
      vertex -91.5577 -13.3806 3.08658
      vertex -90.9199 -13 5
    endloop
  endfacet
  facet normal -0.948657 0 0.316308
    outer loop
      vertex -91.5577 -13.3806 3.08658
      vertex -91.6648 17.5952 2.76537
      vertex -91.6648 -13.5952 2.76537
    endloop
  endfacet
  facet normal -0.948684 -6.80907e-07 0.316225
    outer loop
      vertex -90.2821 26.6194 6.91342
      vertex -91.6648 70.8017 2.76537
      vertex -90.9199 27 5
    endloop
  endfacet
  facet normal -0.948684 -6.67227e-07 0.316225
    outer loop
      vertex -91.6648 70.8017 2.76537
      vertex -91.5577 26.6194 3.08658
      vertex -90.9199 27 5
    endloop
  endfacet
  facet normal -0.948657 0 0.316308
    outer loop
      vertex -91.5577 26.6194 3.08658
      vertex -91.6648 70.8017 2.76537
      vertex -91.6648 26.4048 2.76537
    endloop
  endfacet
  facet normal -0.948683 -4.03188e-07 0.316227
    outer loop
      vertex -91.6648 70.8017 2.76537
      vertex -90.2821 26.6194 6.91342
      vertex -82.5866 61.7235 30
    endloop
  endfacet
  facet normal -0.948684 3.90035e-07 0.316226
    outer loop
      vertex -89.7414 25.5355 8.53553
      vertex -82.5866 61.7235 30
      vertex -90.2821 26.6194 6.91342
    endloop
  endfacet
  facet normal -0.948682 -3.07429e-06 0.316232
    outer loop
      vertex -89.3801 23.9134 9.6194
      vertex -82.5866 61.7235 30
      vertex -89.7414 25.5355 8.53553
    endloop
  endfacet
  facet normal -0.948677 -1.22975e-05 0.316247
    outer loop
      vertex -89.2532 22 10
      vertex -82.5866 61.7235 30
      vertex -89.3801 23.9134 9.6194
    endloop
  endfacet
  facet normal -0.948701 2.83612e-05 0.316174
    outer loop
      vertex -89.3801 20.0866 9.6194
      vertex -82.5866 61.7235 30
      vertex -89.2532 22 10
    endloop
  endfacet
  facet normal -0.948684 0 0.316225
    outer loop
      vertex -90.9199 -13 5
      vertex -90.2821 17.3806 6.91342
      vertex -90.9199 17 5
    endloop
  endfacet
  facet normal -0.948684 0 0.316225
    outer loop
      vertex -90.2821 -13.3806 6.91342
      vertex -90.2821 17.3806 6.91342
      vertex -90.9199 -13 5
    endloop
  endfacet
  facet normal -0.948684 0 0.316226
    outer loop
      vertex -90.2821 17.3806 6.91342
      vertex -90.2821 -13.3806 6.91342
      vertex -89.7414 18.4645 8.53553
    endloop
  endfacet
  facet normal -0.948684 0 0.316226
    outer loop
      vertex -89.7414 -14.4645 8.53553
      vertex -89.7414 18.4645 8.53553
      vertex -90.2821 -13.3806 6.91342
    endloop
  endfacet
  facet normal -0.948681 0 0.316236
    outer loop
      vertex -89.7414 18.4645 8.53553
      vertex -89.7414 -14.4645 8.53553
      vertex -89.3801 20.0866 9.6194
    endloop
  endfacet
  facet normal -0.948681 0 0.316236
    outer loop
      vertex -89.3801 -16.0866 9.6194
      vertex -89.3801 20.0866 9.6194
      vertex -89.7414 -14.4645 8.53553
    endloop
  endfacet
  facet normal -0.948684 0 0.316226
    outer loop
      vertex -89.3801 20.0866 9.6194
      vertex -89.3801 -16.0866 9.6194
      vertex -82.5866 61.7235 30
    endloop
  endfacet
  facet normal -0.948673 -9.56875e-06 0.316259
    outer loop
      vertex -89.2532 -18 10
      vertex -82.5866 61.7235 30
      vertex -89.3801 -16.0866 9.6194
    endloop
  endfacet
  facet normal -0.948676 1.19565e-05 0.316248
    outer loop
      vertex -82.5866 -61.7235 30
      vertex -89.2532 -18 10
      vertex -89.3801 -19.9134 9.6194
    endloop
  endfacet
  facet normal -0.948684 0 0.316225
    outer loop
      vertex -89.2532 -18 10
      vertex -82.5866 -61.7235 30
      vertex -82.5866 61.7235 30
    endloop
  endfacet
  facet normal -0.948682 2.90423e-06 0.316232
    outer loop
      vertex -89.7414 -21.5355 8.53553
      vertex -82.5866 -61.7235 30
      vertex -89.3801 -19.9134 9.6194
    endloop
  endfacet
  facet normal -0.948684 -3.61425e-07 0.316226
    outer loop
      vertex -90.2821 -22.6194 6.91342
      vertex -82.5866 -61.7235 30
      vertex -89.7414 -21.5355 8.53553
    endloop
  endfacet
  facet normal -0.948684 -1.16741e-06 0.316225
    outer loop
      vertex -82.5866 -61.7235 30
      vertex -90.2821 -22.6194 6.91342
      vertex -90.9199 -23 5
    endloop
  endfacet
  facet normal 0 -1 0
    outer loop
      vertex -90.4112 -71.8014 -0.765367
      vertex 89.5888 -71.8014 2.76537
      vertex -90.4112 -71.8014 2.76537
    endloop
  endfacet
  facet normal 0 -1 -0
    outer loop
      vertex 89.5888 -71.8014 2.76537
      vertex -90.4112 -71.8014 -0.765367
      vertex 89.5888 -71.8014 -0.765367
    endloop
  endfacet
  facet normal 0.669342 0.322367 -0.669374
    outer loop
      vertex 90.7654 70 -1.84776
      vertex 90.4772 70.5984 -1.84776
      vertex 91.1521 71.4446 -0.765367
    endloop
  endfacet
  facet normal 0 -0.948683 0.316227
    outer loop
      vertex -90.4112 -71.8014 2.76537
      vertex 80.5106 -62.7232 30
      vertex -81.333 -62.7232 30
    endloop
  endfacet
  facet normal 0 -0.948683 0.316227
    outer loop
      vertex 80.5106 -62.7232 30
      vertex -90.4112 -71.8014 2.76537
      vertex 89.5888 -71.8014 2.76537
    endloop
  endfacet
  facet normal 0.669342 -0.322367 -0.669374
    outer loop
      vertex 91.1521 -71.4446 -0.765367
      vertex 90.4772 -70.5984 -1.84776
      vertex 90.7654 -70 -1.84776
    endloop
  endfacet
  facet normal 0 0.948683 0.316227
    outer loop
      vertex 89.5888 71.8014 2.76537
      vertex -81.333 62.7232 30
      vertex 80.5106 62.7232 30
    endloop
  endfacet
  facet normal 0 0.948683 0.316227
    outer loop
      vertex -81.333 62.7232 30
      vertex 89.5888 71.8014 2.76537
      vertex -90.4112 71.8014 2.76537
    endloop
  endfacet
  facet normal 0 0.716044 -0.698055
    outer loop
      vertex -90.1703 70.7462 -1.84776
      vertex 89.5888 71.8014 -0.765367
      vertex 89.8297 70.7462 -1.84776
    endloop
  endfacet
  facet normal 0 0.716044 -0.698055
    outer loop
      vertex 89.5888 71.8014 -0.765367
      vertex -90.1703 70.7462 -1.84776
      vertex -90.4112 71.8014 -0.765367
    endloop
  endfacet
  facet normal -0.463216 0.580862 -0.669351
    outer loop
      vertex -90.6896 70.3321 -1.84776
      vertex -91.6648 70.8017 -0.765367
      vertex -90.4112 71.8014 -0.765367
    endloop
  endfacet
  facet normal 0 -0.716044 -0.698055
    outer loop
      vertex -90.1703 -70.7462 -1.84776
      vertex 89.5888 -71.8014 -0.765367
      vertex -90.4112 -71.8014 -0.765367
    endloop
  endfacet
  facet normal 0 -0.716044 -0.698055
    outer loop
      vertex 89.5888 -71.8014 -0.765367
      vertex -90.1703 -70.7462 -1.84776
      vertex 89.8297 -70.7462 -1.84776
    endloop
  endfacet
  facet normal -0.463194 -0.580866 -0.669362
    outer loop
      vertex -90.4112 -71.8014 -0.765367
      vertex -90.6896 -70.3321 -1.84776
      vertex -90.1703 -70.7462 -1.84776
    endloop
  endfacet
  facet normal 0.900965 -0.433893 0
    outer loop
      vertex 91.1521 -71.4446 2.76537
      vertex 91.8478 -70 -0.765367
      vertex 91.8478 -70 2.76537
    endloop
  endfacet
  facet normal 0.900965 -0.433893 0
    outer loop
      vertex 91.8478 -70 -0.765367
      vertex 91.1521 -71.4446 2.76537
      vertex 91.1521 -71.4446 -0.765367
    endloop
  endfacet
  facet normal 0.206671 -0.905462 0.370711
    outer loop
      vertex 89.5888 -71.8014 2.76537
      vertex 82.0738 -62.3664 30
      vertex 80.5106 -62.7232 30
    endloop
  endfacet
  facet normal 0.206659 -0.905465 0.370708
    outer loop
      vertex 82.0738 -62.3664 30
      vertex 89.5888 -71.8014 2.76537
      vertex 91.1521 -71.4446 2.76537
    endloop
  endfacet
  facet normal 0.707104 0 -0.707109
    outer loop
      vertex 91.8478 -70 -0.765367
      vertex 90.7654 70 -1.84776
      vertex 91.8478 70 -0.765367
    endloop
  endfacet
  facet normal 0.707104 0 -0.707109
    outer loop
      vertex 90.7654 70 -1.84776
      vertex 91.8478 -70 -0.765367
      vertex 90.7654 -70 -1.84776
    endloop
  endfacet
  facet normal -0.463194 0.580866 -0.669362
    outer loop
      vertex -90.1703 70.7462 -1.84776
      vertex -90.6896 70.3321 -1.84776
      vertex -90.4112 71.8014 -0.765367
    endloop
  endfacet
  facet normal 0.206659 0.905465 0.370708
    outer loop
      vertex 89.5888 71.8014 2.76537
      vertex 82.0738 62.3664 30
      vertex 91.1521 71.4446 2.76537
    endloop
  endfacet
  facet normal 0.206671 0.905462 0.370711
    outer loop
      vertex 82.0738 62.3664 30
      vertex 89.5888 71.8014 2.76537
      vertex 80.5106 62.7232 30
    endloop
  endfacet
  facet normal -0.742937 0 -0.669361
    outer loop
      vertex -90.6896 -70.3321 -1.84776
      vertex -91.6648 70.8017 -0.765367
      vertex -90.6896 70.3321 -1.84776
    endloop
  endfacet
  facet normal -0.742937 -0 -0.669361
    outer loop
      vertex -91.6648 70.8017 -0.765367
      vertex -90.6896 -70.3321 -1.84776
      vertex -91.6648 -70.8017 -0.765367
    endloop
  endfacet
  facet normal 0.165337 -0.72433 -0.669335
    outer loop
      vertex 90.4772 -70.5984 -1.84776
      vertex 89.5888 -71.8014 -0.765367
      vertex 89.8297 -70.7462 -1.84776
    endloop
  endfacet
  facet normal 0.669359 -0.322354 -0.669363
    outer loop
      vertex 91.1521 -71.4446 -0.765367
      vertex 90.7654 -70 -1.84776
      vertex 91.8478 -70 -0.765367
    endloop
  endfacet
  facet normal 0.165316 -0.724325 -0.669346
    outer loop
      vertex 91.1521 -71.4446 -0.765367
      vertex 89.5888 -71.8014 -0.765367
      vertex 90.4772 -70.5984 -1.84776
    endloop
  endfacet
  facet normal 0.165337 0.72433 -0.669335
    outer loop
      vertex 89.8297 70.7462 -1.84776
      vertex 89.5888 71.8014 -0.765367
      vertex 90.4772 70.5984 -1.84776
    endloop
  endfacet
  facet normal -0.623485 0.781835 0
    outer loop
      vertex -90.4112 71.8014 -0.765367
      vertex -91.6648 70.8017 2.76537
      vertex -90.4112 71.8014 2.76537
    endloop
  endfacet
  facet normal -0.623485 0.781835 0
    outer loop
      vertex -91.6648 70.8017 2.76537
      vertex -90.4112 71.8014 -0.765367
      vertex -91.6648 70.8017 -0.765367
    endloop
  endfacet
  facet normal 0 1 -0
    outer loop
      vertex 89.5888 71.8014 -0.765367
      vertex -90.4112 71.8014 2.76537
      vertex 89.5888 71.8014 2.76537
    endloop
  endfacet
  facet normal 0 1 0
    outer loop
      vertex -90.4112 71.8014 2.76537
      vertex 89.5888 71.8014 -0.765367
      vertex -90.4112 71.8014 -0.765367
    endloop
  endfacet
  facet normal -0.623485 -0.781835 0
    outer loop
      vertex -91.6648 -70.8017 -0.765367
      vertex -90.4112 -71.8014 2.76537
      vertex -91.6648 -70.8017 2.76537
    endloop
  endfacet
  facet normal -0.623485 -0.781835 -0
    outer loop
      vertex -90.4112 -71.8014 2.76537
      vertex -91.6648 -70.8017 -0.765367
      vertex -90.4112 -71.8014 -0.765367
    endloop
  endfacet
  facet normal -1 0 0
    outer loop
      vertex -91.6648 70.8017 -0.765367
      vertex -91.6648 26.4048 2.76537
      vertex -91.6648 70.8017 2.76537
    endloop
  endfacet
  facet normal -1 0 0
    outer loop
      vertex -91.6648 70.8017 -0.765367
      vertex -91.6648 25.5355 1.46447
      vertex -91.6648 26.4048 2.76537
    endloop
  endfacet
  facet normal -1 0 0
    outer loop
      vertex -91.6648 70.8017 -0.765367
      vertex -91.6648 23.9134 0.380602
      vertex -91.6648 25.5355 1.46447
    endloop
  endfacet
  facet normal -1 0 0
    outer loop
      vertex -91.6648 70.8017 -0.765367
      vertex -91.6648 22 0
      vertex -91.6648 23.9134 0.380602
    endloop
  endfacet
  facet normal -1 0 0
    outer loop
      vertex -91.6648 18.4645 1.46447
      vertex -91.6648 -13.5952 2.76537
      vertex -91.6648 17.5952 2.76537
    endloop
  endfacet
  facet normal -1 0 0
    outer loop
      vertex -91.6648 -14.4645 1.46447
      vertex -91.6648 18.4645 1.46447
      vertex -91.6648 20.0866 0.380602
    endloop
  endfacet
  facet normal -1 0 0
    outer loop
      vertex -91.6648 -16.0866 0.380602
      vertex -91.6648 20.0866 0.380602
      vertex -91.6648 22 0
    endloop
  endfacet
  facet normal -1 0 0
    outer loop
      vertex -91.6648 18.4645 1.46447
      vertex -91.6648 -14.4645 1.46447
      vertex -91.6648 -13.5952 2.76537
    endloop
  endfacet
  facet normal -1 0 0
    outer loop
      vertex -91.6648 20.0866 0.380602
      vertex -91.6648 -16.0866 0.380602
      vertex -91.6648 -14.4645 1.46447
    endloop
  endfacet
  facet normal -1 0 0
    outer loop
      vertex -91.6648 -18 0
      vertex -91.6648 22 0
      vertex -91.6648 70.8017 -0.765367
    endloop
  endfacet
  facet normal -1 0 0
    outer loop
      vertex -91.6648 22 0
      vertex -91.6648 -18 0
      vertex -91.6648 -16.0866 0.380602
    endloop
  endfacet
  facet normal -1 0 0
    outer loop
      vertex -91.6648 -70.8017 -0.765367
      vertex -91.6648 -18 0
      vertex -91.6648 70.8017 -0.765367
    endloop
  endfacet
  facet normal -1 0 0
    outer loop
      vertex -91.6648 -70.8017 -0.765367
      vertex -91.6648 -19.9134 0.380602
      vertex -91.6648 -18 0
    endloop
  endfacet
  facet normal -1 0 0
    outer loop
      vertex -91.6648 -70.8017 -0.765367
      vertex -91.6648 -21.5355 1.46447
      vertex -91.6648 -19.9134 0.380602
    endloop
  endfacet
  facet normal -1 0 0
    outer loop
      vertex -91.6648 -70.8017 -0.765367
      vertex -91.6648 -22.4048 2.76537
      vertex -91.6648 -21.5355 1.46447
    endloop
  endfacet
  facet normal -1 -0 0
    outer loop
      vertex -91.6648 -22.4048 2.76537
      vertex -91.6648 -70.8017 -0.765367
      vertex -91.6648 -70.8017 2.76537
    endloop
  endfacet
  facet normal 0.823156 0.396421 0.406528
    outer loop
      vertex 82.0738 62.3664 30
      vertex 91.8478 70 2.76537
      vertex 91.1521 71.4446 2.76537
    endloop
  endfacet
  facet normal 0.823156 0.396421 0.406528
    outer loop
      vertex 91.8478 70 2.76537
      vertex 82.0738 62.3664 30
      vertex 82.7695 60.9218 30
    endloop
  endfacet
  facet normal 0.669359 0.322354 -0.669363
    outer loop
      vertex 91.8478 70 -0.765367
      vertex 90.7654 70 -1.84776
      vertex 91.1521 71.4446 -0.765367
    endloop
  endfacet
  facet normal 0 0.948684 -0.316227
    outer loop
      vertex 90 -70 2
      vertex -80.6667 -60.6667 30
      vertex 80.6667 -60.6667 30
    endloop
  endfacet
  facet normal 0 0.948684 -0.316227
    outer loop
      vertex -80.6667 -60.6667 30
      vertex 90 -70 2
      vertex -90 -70 2
    endloop
  endfacet
  facet normal 0.948684 -1.32019e-06 -0.316225
    outer loop
      vertex -80.6667 60.6667 30
      vertex -88.3622 26.6194 6.91342
      vertex -89 27 5
    endloop
  endfacet
  facet normal 0.948684 -3.98366e-07 -0.316226
    outer loop
      vertex -80.6667 60.6667 30
      vertex -87.8215 25.5355 8.53553
      vertex -88.3622 26.6194 6.91342
    endloop
  endfacet
  facet normal 0.948682 3.12259e-06 -0.316231
    outer loop
      vertex -80.6667 60.6667 30
      vertex -87.4602 23.9134 9.6194
      vertex -87.8215 25.5355 8.53553
    endloop
  endfacet
  facet normal 0.948677 1.23908e-05 -0.316246
    outer loop
      vertex -80.6667 60.6667 30
      vertex -87.3333 22 10
      vertex -87.4602 23.9134 9.6194
    endloop
  endfacet
  facet normal 0.9487 -2.78768e-05 -0.316176
    outer loop
      vertex -80.6667 60.6667 30
      vertex -87.4602 20.0866 9.6194
      vertex -87.3333 22 10
    endloop
  endfacet
  facet normal 0.948684 0 -0.316225
    outer loop
      vertex -88.3622 17.3806 6.91342
      vertex -89 -13 5
      vertex -89 17 5
    endloop
  endfacet
  facet normal 0.948684 0 -0.316226
    outer loop
      vertex -88.3622 -13.3806 6.91342
      vertex -88.3622 17.3806 6.91342
      vertex -87.8215 18.4645 8.53553
    endloop
  endfacet
  facet normal 0.948681 0 -0.316236
    outer loop
      vertex -87.8215 -14.4645 8.53553
      vertex -87.8215 18.4645 8.53553
      vertex -87.4602 20.0866 9.6194
    endloop
  endfacet
  facet normal 0.948684 0 -0.316226
    outer loop
      vertex -87.4602 -16.0866 9.6194
      vertex -87.4602 20.0866 9.6194
      vertex -80.6667 60.6667 30
    endloop
  endfacet
  facet normal 0.948684 0 -0.316225
    outer loop
      vertex -88.3622 17.3806 6.91342
      vertex -88.3622 -13.3806 6.91342
      vertex -89 -13 5
    endloop
  endfacet
  facet normal 0.948684 0 -0.316226
    outer loop
      vertex -87.8215 18.4645 8.53553
      vertex -87.8215 -14.4645 8.53553
      vertex -88.3622 -13.3806 6.91342
    endloop
  endfacet
  facet normal 0.948681 0 -0.316236
    outer loop
      vertex -87.4602 20.0866 9.6194
      vertex -87.4602 -16.0866 9.6194
      vertex -87.8215 -14.4645 8.53553
    endloop
  endfacet
  facet normal 0.948673 9.62518e-06 -0.316259
    outer loop
      vertex -80.6667 60.6667 30
      vertex -87.3333 -18 10
      vertex -87.4602 -16.0866 9.6194
    endloop
  endfacet
  facet normal 0.948684 0 -0.316225
    outer loop
      vertex -80.6667 -60.6667 30
      vertex -87.3333 -18 10
      vertex -80.6667 60.6667 30
    endloop
  endfacet
  facet normal 0.948684 1.19634e-06 -0.316225
    outer loop
      vertex -88.3622 -22.6194 6.91342
      vertex -80.6667 -60.6667 30
      vertex -89 -23 5
    endloop
  endfacet
  facet normal 0.948684 3.68567e-07 -0.316226
    outer loop
      vertex -87.8215 -21.5355 8.53553
      vertex -80.6667 -60.6667 30
      vertex -88.3622 -22.6194 6.91342
    endloop
  endfacet
  facet normal 0.948682 -2.9473e-06 -0.316232
    outer loop
      vertex -87.4602 -19.9134 9.6194
      vertex -80.6667 -60.6667 30
      vertex -87.8215 -21.5355 8.53553
    endloop
  endfacet
  facet normal 0.948677 -1.20447e-05 -0.316248
    outer loop
      vertex -87.3333 -18 10
      vertex -80.6667 -60.6667 30
      vertex -87.4602 -19.9134 9.6194
    endloop
  endfacet
  facet normal 0.948684 8.06704e-08 -0.316227
    outer loop
      vertex -89 27 5
      vertex -90 70 2
      vertex -80.6667 60.6667 30
    endloop
  endfacet
  facet normal 0.948684 2.27451e-07 -0.316225
    outer loop
      vertex -89.6378 26.6194 3.08658
      vertex -90 70 2
      vertex -89 27 5
    endloop
  endfacet
  facet normal 0.948682 0 -0.316233
    outer loop
      vertex -90 70 2
      vertex -89.6378 26.6194 3.08658
      vertex -90 25.8934 2
    endloop
  endfacet
  facet normal 0.948684 0 -0.316225
    outer loop
      vertex -89 -13 5
      vertex -89.6378 17.3806 3.08658
      vertex -89 17 5
    endloop
  endfacet
  facet normal 0.948684 0 -0.316225
    outer loop
      vertex -89.6378 -13.3806 3.08658
      vertex -89.6378 17.3806 3.08658
      vertex -89 -13 5
    endloop
  endfacet
  facet normal 0.948682 0 -0.316233
    outer loop
      vertex -89.6378 17.3806 3.08658
      vertex -89.6378 -13.3806 3.08658
      vertex -90 18.1066 2
    endloop
  endfacet
  facet normal 0.948682 0 -0.316233
    outer loop
      vertex -90 18.1066 2
      vertex -89.6378 -13.3806 3.08658
      vertex -90 -14.1066 2
    endloop
  endfacet
  facet normal 0.948684 -7.36556e-08 -0.316227
    outer loop
      vertex -90 -70 2
      vertex -89 -23 5
      vertex -80.6667 -60.6667 30
    endloop
  endfacet
  facet normal 0.948684 -2.08336e-07 -0.316225
    outer loop
      vertex -89 -23 5
      vertex -90 -70 2
      vertex -89.6378 -22.6194 3.08658
    endloop
  endfacet
  facet normal 0.948682 0 -0.316233
    outer loop
      vertex -89.6378 -22.6194 3.08658
      vertex -90 -70 2
      vertex -90 -21.8934 2
    endloop
  endfacet
  facet normal -0.948684 0 -0.316227
    outer loop
      vertex 90 70 2
      vertex 80.6667 -60.6667 30
      vertex 80.6667 60.6667 30
    endloop
  endfacet
  facet normal -0.948684 0 -0.316227
    outer loop
      vertex 80.6667 -60.6667 30
      vertex 90 70 2
      vertex 90 -70 2
    endloop
  endfacet
  facet normal 1 -0 0
    outer loop
      vertex -90 25.8934 2
      vertex -90 70 0
      vertex -90 70 2
    endloop
  endfacet
  facet normal 1 -0 0
    outer loop
      vertex -90 25.5355 1.46447
      vertex -90 70 0
      vertex -90 25.8934 2
    endloop
  endfacet
  facet normal 1 -0 0
    outer loop
      vertex -90 23.9134 0.380602
      vertex -90 70 0
      vertex -90 25.5355 1.46447
    endloop
  endfacet
  facet normal 1 0 0
    outer loop
      vertex -90 70 0
      vertex -90 23.9134 0.380602
      vertex -90 22 0
    endloop
  endfacet
  facet normal 1 0 0
    outer loop
      vertex -90 -70 0
      vertex -90 -21.8934 2
      vertex -90 -70 2
    endloop
  endfacet
  facet normal 1 0 0
    outer loop
      vertex -90 -21.8934 2
      vertex -90 -70 0
      vertex -90 -21.5355 1.46447
    endloop
  endfacet
  facet normal 1 0 0
    outer loop
      vertex -90 -21.5355 1.46447
      vertex -90 -70 0
      vertex -90 -19.9134 0.380602
    endloop
  endfacet
  facet normal 1 0 0
    outer loop
      vertex -90 -19.9134 0.380602
      vertex -90 -70 0
      vertex -90 -18 0
    endloop
  endfacet
  facet normal 1 -0 0
    outer loop
      vertex -90 -14.1066 2
      vertex -90 18.4645 1.46447
      vertex -90 18.1066 2
    endloop
  endfacet
  facet normal 1 0 0
    outer loop
      vertex -90 -14.4645 1.46447
      vertex -90 18.4645 1.46447
      vertex -90 -14.1066 2
    endloop
  endfacet
  facet normal 1 0 0
    outer loop
      vertex -90 18.4645 1.46447
      vertex -90 -14.4645 1.46447
      vertex -90 20.0866 0.380602
    endloop
  endfacet
  facet normal 1 0 0
    outer loop
      vertex -90 -16.0866 0.380602
      vertex -90 20.0866 0.380602
      vertex -90 -14.4645 1.46447
    endloop
  endfacet
  facet normal 1 0 0
    outer loop
      vertex -90 20.0866 0.380602
      vertex -90 -16.0866 0.380602
      vertex -90 22 0
    endloop
  endfacet
  facet normal 1 0 0
    outer loop
      vertex -90 22 0
      vertex -90 -16.0866 0.380602
      vertex -90 -18 0
    endloop
  endfacet
  facet normal 0 1 -0
    outer loop
      vertex 90 -70 0
      vertex -90 -70 2
      vertex 90 -70 2
    endloop
  endfacet
  facet normal 0 1 0
    outer loop
      vertex -90 -70 2
      vertex 90 -70 0
      vertex -90 -70 0
    endloop
  endfacet
  facet normal 0 -0.948684 -0.316227
    outer loop
      vertex -90 70 2
      vertex 80.6667 60.6667 30
      vertex -80.6667 60.6667 30
    endloop
  endfacet
  facet normal 0 -0.948684 -0.316227
    outer loop
      vertex 80.6667 60.6667 30
      vertex -90 70 2
      vertex 90 70 2
    endloop
  endfacet
  facet normal 0 -1 0
    outer loop
      vertex -90 70 0
      vertex 90 70 2
      vertex -90 70 2
    endloop
  endfacet
  facet normal 0 -1 -0
    outer loop
      vertex 90 70 2
      vertex -90 70 0
      vertex 90 70 0
    endloop
  endfacet
  facet normal -1 0 0
    outer loop
      vertex 90 -70 0
      vertex 90 70 2
      vertex 90 70 0
    endloop
  endfacet
  facet normal -1 -0 0
    outer loop
      vertex 90 70 2
      vertex 90 -70 0
      vertex 90 -70 2
    endloop
  endfacet
  facet normal 0 0 1
    outer loop
      vertex 80.6667 60.6667 30
      vertex 82.7695 60.9218 30
      vertex 82.0738 62.3664 30
    endloop
  endfacet
  facet normal 0 0 1
    outer loop
      vertex 82.7695 60.9218 30
      vertex 80.6667 60.6667 30
      vertex 82.7695 -60.9218 30
    endloop
  endfacet
  facet normal -0 0 1
    outer loop
      vertex 80.6667 -60.6667 30
      vertex 82.7695 -60.9218 30
      vertex 80.6667 60.6667 30
    endloop
  endfacet
  facet normal 0 0 1
    outer loop
      vertex 80.5106 62.7232 30
      vertex 80.6667 60.6667 30
      vertex 82.0738 62.3664 30
    endloop
  endfacet
  facet normal 0 0 1
    outer loop
      vertex 80.5106 62.7232 30
      vertex -80.6667 60.6667 30
      vertex 80.6667 60.6667 30
    endloop
  endfacet
  facet normal -0 0 1
    outer loop
      vertex -82.5866 61.7235 30
      vertex -80.6667 60.6667 30
      vertex -81.333 62.7232 30
    endloop
  endfacet
  facet normal -0 0 1
    outer loop
      vertex -81.333 62.7232 30
      vertex -80.6667 60.6667 30
      vertex 80.5106 62.7232 30
    endloop
  endfacet
  facet normal 0 0 1
    outer loop
      vertex 82.7695 -60.9218 30
      vertex 80.6667 -60.6667 30
      vertex 82.0738 -62.3664 30
    endloop
  endfacet
  facet normal 0 0 1
    outer loop
      vertex 80.6667 -60.6667 30
      vertex 80.5106 -62.7232 30
      vertex 82.0738 -62.3664 30
    endloop
  endfacet
  facet normal -0 0 1
    outer loop
      vertex -80.6667 -60.6667 30
      vertex 80.5106 -62.7232 30
      vertex 80.6667 -60.6667 30
    endloop
  endfacet
  facet normal 0 0 1
    outer loop
      vertex -80.6667 -60.6667 30
      vertex -81.333 -62.7232 30
      vertex 80.5106 -62.7232 30
    endloop
  endfacet
  facet normal 0 0 1
    outer loop
      vertex -80.6667 60.6667 30
      vertex -82.5866 61.7235 30
      vertex -80.6667 -60.6667 30
    endloop
  endfacet
  facet normal 0 0 1
    outer loop
      vertex -82.5866 -61.7235 30
      vertex -80.6667 -60.6667 30
      vertex -82.5866 61.7235 30
    endloop
  endfacet
  facet normal 0 0 1
    outer loop
      vertex -80.6667 -60.6667 30
      vertex -82.5866 -61.7235 30
      vertex -81.333 -62.7232 30
    endloop
  endfacet
  facet normal 0 -0.195092 0.980785
    outer loop
      vertex -91.6648 -16.0866 0.380602
      vertex -90 -18 0
      vertex -90 -16.0866 0.380602
    endloop
  endfacet
  facet normal 0 -0.195092 0.980785
    outer loop
      vertex -90 -18 0
      vertex -91.6648 -16.0866 0.380602
      vertex -91.6648 -18 0
    endloop
  endfacet
  facet normal 0 -0.195091 -0.980785
    outer loop
      vertex -89.2532 -18 10
      vertex -87.4602 -16.0866 9.6194
      vertex -87.3333 -18 10
    endloop
  endfacet
  facet normal -0 -0.195091 -0.980785
    outer loop
      vertex -87.4602 -16.0866 9.6194
      vertex -89.2532 -18 10
      vertex -89.3801 -16.0866 9.6194
    endloop
  endfacet
  facet normal -0 -0.980786 -0.195089
    outer loop
      vertex -89 -13 5
      vertex -90.2821 -13.3806 6.91342
      vertex -90.9199 -13 5
    endloop
  endfacet
  facet normal 0 -0.980786 -0.195089
    outer loop
      vertex -90.2821 -13.3806 6.91342
      vertex -89 -13 5
      vertex -88.3622 -13.3806 6.91342
    endloop
  endfacet
  facet normal -0 -0.83146 -0.555585
    outer loop
      vertex -88.3622 -13.3806 6.91342
      vertex -89.7414 -14.4645 8.53553
      vertex -90.2821 -13.3806 6.91342
    endloop
  endfacet
  facet normal 0 -0.83146 -0.555585
    outer loop
      vertex -89.7414 -14.4645 8.53553
      vertex -88.3622 -13.3806 6.91342
      vertex -87.8215 -14.4645 8.53553
    endloop
  endfacet
  facet normal 0 0.980786 -0.195089
    outer loop
      vertex -89 -23 5
      vertex -90.2821 -22.6194 6.91342
      vertex -88.3622 -22.6194 6.91342
    endloop
  endfacet
  facet normal 0 0.980786 -0.195089
    outer loop
      vertex -90.2821 -22.6194 6.91342
      vertex -89 -23 5
      vertex -90.9199 -23 5
    endloop
  endfacet
  facet normal 0 0.555576 -0.831465
    outer loop
      vertex -87.8215 -21.5355 8.53553
      vertex -89.3801 -19.9134 9.6194
      vertex -87.4602 -19.9134 9.6194
    endloop
  endfacet
  facet normal 0 0.555576 -0.831465
    outer loop
      vertex -89.3801 -19.9134 9.6194
      vertex -87.8215 -21.5355 8.53553
      vertex -89.7414 -21.5355 8.53553
    endloop
  endfacet
  facet normal 0 -0.555576 0.831466
    outer loop
      vertex -91.6648 -14.4645 1.46447
      vertex -90 -16.0866 0.380602
      vertex -90 -14.4645 1.46447
    endloop
  endfacet
  facet normal 0 -0.555576 0.831466
    outer loop
      vertex -90 -16.0866 0.380602
      vertex -91.6648 -14.4645 1.46447
      vertex -91.6648 -16.0866 0.380602
    endloop
  endfacet
  facet normal 0 -0.980786 0.195089
    outer loop
      vertex -89.6378 -13.3806 3.08658
      vertex -90.9199 -13 5
      vertex -91.5577 -13.3806 3.08658
    endloop
  endfacet
  facet normal 0 -0.980786 0.195089
    outer loop
      vertex -90.9199 -13 5
      vertex -89.6378 -13.3806 3.08658
      vertex -89 -13 5
    endloop
  endfacet
  facet normal 0 -0.555576 -0.831465
    outer loop
      vertex -89.3801 -16.0866 9.6194
      vertex -87.8215 -14.4645 8.53553
      vertex -87.4602 -16.0866 9.6194
    endloop
  endfacet
  facet normal -0 -0.555576 -0.831465
    outer loop
      vertex -87.8215 -14.4645 8.53553
      vertex -89.3801 -16.0866 9.6194
      vertex -89.7414 -14.4645 8.53553
    endloop
  endfacet
  facet normal 0 0.980786 0.195089
    outer loop
      vertex -89.6378 -22.6194 3.08658
      vertex -90.9199 -23 5
      vertex -89 -23 5
    endloop
  endfacet
  facet normal 0 0.980786 0.195089
    outer loop
      vertex -90.9199 -23 5
      vertex -89.6378 -22.6194 3.08658
      vertex -91.5577 -22.6194 3.08658
    endloop
  endfacet
  facet normal -0 0.555576 0.831466
    outer loop
      vertex -91.6648 -19.9134 0.380602
      vertex -90 -21.5355 1.46447
      vertex -90 -19.9134 0.380602
    endloop
  endfacet
  facet normal 0 0.555576 0.831466
    outer loop
      vertex -90 -21.5355 1.46447
      vertex -91.6648 -19.9134 0.380602
      vertex -91.6648 -21.5355 1.46447
    endloop
  endfacet
  facet normal 0 0.83146 -0.555585
    outer loop
      vertex -88.3622 -22.6194 6.91342
      vertex -89.7414 -21.5355 8.53553
      vertex -87.8215 -21.5355 8.53553
    endloop
  endfacet
  facet normal 0 0.83146 -0.555585
    outer loop
      vertex -89.7414 -21.5355 8.53553
      vertex -88.3622 -22.6194 6.91342
      vertex -90.2821 -22.6194 6.91342
    endloop
  endfacet
  facet normal 0 0.195091 -0.980785
    outer loop
      vertex -87.4602 -19.9134 9.6194
      vertex -89.2532 -18 10
      vertex -87.3333 -18 10
    endloop
  endfacet
  facet normal 0 0.195091 -0.980785
    outer loop
      vertex -89.2532 -18 10
      vertex -87.4602 -19.9134 9.6194
      vertex -89.3801 -19.9134 9.6194
    endloop
  endfacet
  facet normal -2.47971e-05 -0.831496 0.55553
    outer loop
      vertex -90 -14.1066 2
      vertex -91.5577 -13.3806 3.08658
      vertex -91.6648 -13.5952 2.76537
    endloop
  endfacet
  facet normal 0 -0.83148 0.555555
    outer loop
      vertex -91.5577 -13.3806 3.08658
      vertex -90 -14.1066 2
      vertex -89.6378 -13.3806 3.08658
    endloop
  endfacet
  facet normal 2.14533e-05 -0.83145 0.5556
    outer loop
      vertex -91.6648 -14.4645 1.46447
      vertex -90 -14.1066 2
      vertex -91.6648 -13.5952 2.76537
    endloop
  endfacet
  facet normal 0 -0.831419 0.555646
    outer loop
      vertex -90 -14.1066 2
      vertex -91.6648 -14.4645 1.46447
      vertex -90 -14.4645 1.46447
    endloop
  endfacet
  facet normal 0 0.83148 0.555555
    outer loop
      vertex -90 -21.8934 2
      vertex -91.5577 -22.6194 3.08658
      vertex -89.6378 -22.6194 3.08658
    endloop
  endfacet
  facet normal -2.47971e-05 0.831496 0.55553
    outer loop
      vertex -91.5577 -22.6194 3.08658
      vertex -90 -21.8934 2
      vertex -91.6648 -22.4048 2.76537
    endloop
  endfacet
  facet normal -0 0.831419 0.555646
    outer loop
      vertex -91.6648 -21.5355 1.46447
      vertex -90 -21.8934 2
      vertex -90 -21.5355 1.46447
    endloop
  endfacet
  facet normal 2.14533e-05 0.83145 0.5556
    outer loop
      vertex -90 -21.8934 2
      vertex -91.6648 -21.5355 1.46447
      vertex -91.6648 -22.4048 2.76537
    endloop
  endfacet
  facet normal -0 0.195092 0.980785
    outer loop
      vertex -91.6648 -18 0
      vertex -90 -19.9134 0.380602
      vertex -90 -18 0
    endloop
  endfacet
  facet normal 0 0.195092 0.980785
    outer loop
      vertex -90 -19.9134 0.380602
      vertex -91.6648 -18 0
      vertex -91.6648 -19.9134 0.380602
    endloop
  endfacet
  facet normal 0 -0.195092 0.980785
    outer loop
      vertex -91.6648 23.9134 0.380602
      vertex -90 22 0
      vertex -90 23.9134 0.380602
    endloop
  endfacet
  facet normal 0 -0.195092 0.980785
    outer loop
      vertex -90 22 0
      vertex -91.6648 23.9134 0.380602
      vertex -91.6648 22 0
    endloop
  endfacet
  facet normal 0 -0.195091 -0.980785
    outer loop
      vertex -89.2532 22 10
      vertex -87.4602 23.9134 9.6194
      vertex -87.3333 22 10
    endloop
  endfacet
  facet normal -0 -0.195091 -0.980785
    outer loop
      vertex -87.4602 23.9134 9.6194
      vertex -89.2532 22 10
      vertex -89.3801 23.9134 9.6194
    endloop
  endfacet
  facet normal 0 -0.555576 0.831466
    outer loop
      vertex -91.6648 25.5355 1.46447
      vertex -90 23.9134 0.380602
      vertex -90 25.5355 1.46447
    endloop
  endfacet
  facet normal 0 -0.555576 0.831466
    outer loop
      vertex -90 23.9134 0.380602
      vertex -91.6648 25.5355 1.46447
      vertex -91.6648 23.9134 0.380602
    endloop
  endfacet
  facet normal 0 0.980786 0.195089
    outer loop
      vertex -89.6378 17.3806 3.08658
      vertex -90.9199 17 5
      vertex -89 17 5
    endloop
  endfacet
  facet normal 0 0.980786 0.195089
    outer loop
      vertex -90.9199 17 5
      vertex -89.6378 17.3806 3.08658
      vertex -91.5577 17.3806 3.08658
    endloop
  endfacet
  facet normal 0 0.83148 0.555555
    outer loop
      vertex -90 18.1066 2
      vertex -91.5577 17.3806 3.08658
      vertex -89.6378 17.3806 3.08658
    endloop
  endfacet
  facet normal -2.47971e-05 0.831496 0.55553
    outer loop
      vertex -91.5577 17.3806 3.08658
      vertex -90 18.1066 2
      vertex -91.6648 17.5952 2.76537
    endloop
  endfacet
  facet normal -0 0.831419 0.555646
    outer loop
      vertex -91.6648 18.4645 1.46447
      vertex -90 18.1066 2
      vertex -90 18.4645 1.46447
    endloop
  endfacet
  facet normal 2.14533e-05 0.83145 0.5556
    outer loop
      vertex -90 18.1066 2
      vertex -91.6648 18.4645 1.46447
      vertex -91.6648 17.5952 2.76537
    endloop
  endfacet
  facet normal -2.47971e-05 -0.831496 0.55553
    outer loop
      vertex -90 25.8934 2
      vertex -91.5577 26.6194 3.08658
      vertex -91.6648 26.4048 2.76537
    endloop
  endfacet
  facet normal 0 -0.83148 0.555555
    outer loop
      vertex -91.5577 26.6194 3.08658
      vertex -90 25.8934 2
      vertex -89.6378 26.6194 3.08658
    endloop
  endfacet
  facet normal 2.14533e-05 -0.83145 0.5556
    outer loop
      vertex -91.6648 25.5355 1.46447
      vertex -90 25.8934 2
      vertex -91.6648 26.4048 2.76537
    endloop
  endfacet
  facet normal 0 -0.831419 0.555646
    outer loop
      vertex -90 25.8934 2
      vertex -91.6648 25.5355 1.46447
      vertex -90 25.5355 1.46447
    endloop
  endfacet
  facet normal -0 -0.83146 -0.555585
    outer loop
      vertex -88.3622 26.6194 6.91342
      vertex -89.7414 25.5355 8.53553
      vertex -90.2821 26.6194 6.91342
    endloop
  endfacet
  facet normal 0 -0.83146 -0.555585
    outer loop
      vertex -89.7414 25.5355 8.53553
      vertex -88.3622 26.6194 6.91342
      vertex -87.8215 25.5355 8.53553
    endloop
  endfacet
  facet normal 0 -0.555576 -0.831465
    outer loop
      vertex -89.3801 23.9134 9.6194
      vertex -87.8215 25.5355 8.53553
      vertex -87.4602 23.9134 9.6194
    endloop
  endfacet
  facet normal -0 -0.555576 -0.831465
    outer loop
      vertex -87.8215 25.5355 8.53553
      vertex -89.3801 23.9134 9.6194
      vertex -89.7414 25.5355 8.53553
    endloop
  endfacet
  facet normal -0 -0.980786 -0.195089
    outer loop
      vertex -89 27 5
      vertex -90.2821 26.6194 6.91342
      vertex -90.9199 27 5
    endloop
  endfacet
  facet normal 0 -0.980786 -0.195089
    outer loop
      vertex -90.2821 26.6194 6.91342
      vertex -89 27 5
      vertex -88.3622 26.6194 6.91342
    endloop
  endfacet
  facet normal -0 0.195092 0.980785
    outer loop
      vertex -91.6648 22 0
      vertex -90 20.0866 0.380602
      vertex -90 22 0
    endloop
  endfacet
  facet normal 0 0.195092 0.980785
    outer loop
      vertex -90 20.0866 0.380602
      vertex -91.6648 22 0
      vertex -91.6648 20.0866 0.380602
    endloop
  endfacet
  facet normal 0 -0.980786 0.195089
    outer loop
      vertex -89.6378 26.6194 3.08658
      vertex -90.9199 27 5
      vertex -91.5577 26.6194 3.08658
    endloop
  endfacet
  facet normal 0 -0.980786 0.195089
    outer loop
      vertex -90.9199 27 5
      vertex -89.6378 26.6194 3.08658
      vertex -89 27 5
    endloop
  endfacet
  facet normal -0 0.555576 0.831466
    outer loop
      vertex -91.6648 20.0866 0.380602
      vertex -90 18.4645 1.46447
      vertex -90 20.0866 0.380602
    endloop
  endfacet
  facet normal 0 0.555576 0.831466
    outer loop
      vertex -90 18.4645 1.46447
      vertex -91.6648 20.0866 0.380602
      vertex -91.6648 18.4645 1.46447
    endloop
  endfacet
  facet normal 0 0.83146 -0.555585
    outer loop
      vertex -88.3622 17.3806 6.91342
      vertex -89.7414 18.4645 8.53553
      vertex -87.8215 18.4645 8.53553
    endloop
  endfacet
  facet normal 0 0.83146 -0.555585
    outer loop
      vertex -89.7414 18.4645 8.53553
      vertex -88.3622 17.3806 6.91342
      vertex -90.2821 17.3806 6.91342
    endloop
  endfacet
  facet normal 0 0.555576 -0.831465
    outer loop
      vertex -87.8215 18.4645 8.53553
      vertex -89.3801 20.0866 9.6194
      vertex -87.4602 20.0866 9.6194
    endloop
  endfacet
  facet normal 0 0.555576 -0.831465
    outer loop
      vertex -89.3801 20.0866 9.6194
      vertex -87.8215 18.4645 8.53553
      vertex -89.7414 18.4645 8.53553
    endloop
  endfacet
  facet normal 0 0.195091 -0.980785
    outer loop
      vertex -87.4602 20.0866 9.6194
      vertex -89.2532 22 10
      vertex -87.3333 22 10
    endloop
  endfacet
  facet normal 0 0.195091 -0.980785
    outer loop
      vertex -89.2532 22 10
      vertex -87.4602 20.0866 9.6194
      vertex -89.3801 20.0866 9.6194
    endloop
  endfacet
  facet normal 0 0.980786 -0.195089
    outer loop
      vertex -89 17 5
      vertex -90.2821 17.3806 6.91342
      vertex -88.3622 17.3806 6.91342
    endloop
  endfacet
  facet normal 0 0.980786 -0.195089
    outer loop
      vertex -90.2821 17.3806 6.91342
      vertex -89 17 5
      vertex -90.9199 17 5
    endloop
  endfacet
endsolid OpenSCAD_Model
