solid OpenSCAD_Model
  facet normal -1 0 0
    outer loop
      vertex -65 -53 0
      vertex -65 62 21
      vertex -65 62 0
    endloop
  endfacet
  facet normal -1 -0 0
    outer loop
      vertex -65 62 21
      vertex -65 -53 0
      vertex -65 -53 21
    endloop
  endfacet
  facet normal 0 0 -1
    outer loop
      vertex 59 -43 3
      vertex 57 -41.5 3
      vertex 59 52 3
    endloop
  endfacet
  facet normal 0 0 -1
    outer loop
      vertex -44.5 -43 3
      vertex 57 -41.5 3
      vertex 59 -43 3
    endloop
  endfacet
  facet normal -0 0 -1
    outer loop
      vertex -43 -41.5 3
      vertex -44.5 -43 3
      vertex -43 50.5 3
    endloop
  endfacet
  facet normal -0 0 -1
    outer loop
      vertex 57 -41.5 3
      vertex -44.5 -43 3
      vertex -43 -41.5 3
    endloop
  endfacet
  facet normal 0 0 -1
    outer loop
      vertex 57 50.5 3
      vertex 59 52 3
      vertex 57 -41.5 3
    endloop
  endfacet
  facet normal 0 0 -1
    outer loop
      vertex -44.5 52 3
      vertex 57 50.5 3
      vertex -43 50.5 3
    endloop
  endfacet
  facet normal 0 0 -1
    outer loop
      vertex 57 50.5 3
      vertex -44.5 52 3
      vertex 59 52 3
    endloop
  endfacet
  facet normal 0 0 -1
    outer loop
      vertex -44.5 52 3
      vertex -43 50.5 3
      vertex -44.5 -43 3
    endloop
  endfacet
  facet normal 0 0 1
    outer loop
      vertex 95 59 3
      vertex 61 54 3
      vertex 95 -50 3
    endloop
  endfacet
  facet normal -0 0 1
    outer loop
      vertex -62 59 3
      vertex 61 54 3
      vertex 95 59 3
    endloop
  endfacet
  facet normal 0 0 1
    outer loop
      vertex -62 -50 3
      vertex -46 54 3
      vertex -62 59 3
    endloop
  endfacet
  facet normal 0 0 1
    outer loop
      vertex 61 54 3
      vertex -62 59 3
      vertex -46 54 3
    endloop
  endfacet
  facet normal -0 0 1
    outer loop
      vertex 61 -46 3
      vertex 95 -50 3
      vertex 61 54 3
    endloop
  endfacet
  facet normal 0 0 1
    outer loop
      vertex -62 -50 3
      vertex 61 -46 3
      vertex -46 -46 3
    endloop
  endfacet
  facet normal 0 0 1
    outer loop
      vertex 61 -46 3
      vertex -62 -50 3
      vertex 95 -50 3
    endloop
  endfacet
  facet normal 0 0 1
    outer loop
      vertex -46 54 3
      vertex -62 -50 3
      vertex -46 -46 3
    endloop
  endfacet
  facet normal -0 0 1
    outer loop
      vertex 60 50.5 3
      vertex 60.5 -41.5 3
      vertex 60.5 50.5 3
    endloop
  endfacet
  facet normal 0 0 1
    outer loop
      vertex 60.5 -41.5 3
      vertex 60 50.5 3
      vertex 60 -41.5 3
    endloop
  endfacet
  facet normal 1 0 0
    outer loop
      vertex 95 -50 21
      vertex 95 -53 21
      vertex 95 -50 3
    endloop
  endfacet
  facet normal 1 0 0
    outer loop
      vertex 95 59 3
      vertex 95 62 21
      vertex 95 59 21
    endloop
  endfacet
  facet normal 1 0 0
    outer loop
      vertex 95 62 21
      vertex 95 59 3
      vertex 95 62 0
    endloop
  endfacet
  facet normal 1 -0 0
    outer loop
      vertex 95 -50 3
      vertex 95 62 0
      vertex 95 59 3
    endloop
  endfacet
  facet normal 1 0 0
    outer loop
      vertex 95 -50 3
      vertex 95 -53 0
      vertex 95 62 0
    endloop
  endfacet
  facet normal 1 0 0
    outer loop
      vertex 95 -53 0
      vertex 95 -50 3
      vertex 95 -53 21
    endloop
  endfacet
  facet normal 0 1 -0
    outer loop
      vertex 95 62 0
      vertex -65 62 21
      vertex 95 62 21
    endloop
  endfacet
  facet normal 0 1 0
    outer loop
      vertex -65 62 21
      vertex 95 62 0
      vertex -65 62 0
    endloop
  endfacet
  facet normal 0 0 -1
    outer loop
      vertex 95 -53 0
      vertex 59 -43 0
      vertex 95 62 0
    endloop
  endfacet
  facet normal 0 0 -1
    outer loop
      vertex -65 -53 0
      vertex 59 -43 0
      vertex 95 -53 0
    endloop
  endfacet
  facet normal -0 0 -1
    outer loop
      vertex -44.5 -43 0
      vertex -65 -53 0
      vertex -44.5 52 0
    endloop
  endfacet
  facet normal -0 0 -1
    outer loop
      vertex 59 -43 0
      vertex -65 -53 0
      vertex -44.5 -43 0
    endloop
  endfacet
  facet normal 0 0 -1
    outer loop
      vertex 59 52 0
      vertex 95 62 0
      vertex 59 -43 0
    endloop
  endfacet
  facet normal 0 0 -1
    outer loop
      vertex -65 62 0
      vertex 59 52 0
      vertex -44.5 52 0
    endloop
  endfacet
  facet normal 0 0 -1
    outer loop
      vertex 59 52 0
      vertex -65 62 0
      vertex 95 62 0
    endloop
  endfacet
  facet normal 0 0 -1
    outer loop
      vertex -65 62 0
      vertex -44.5 52 0
      vertex -65 -53 0
    endloop
  endfacet
  facet normal 0 -1 0
    outer loop
      vertex -65 -53 0
      vertex 95 -53 21
      vertex -65 -53 21
    endloop
  endfacet
  facet normal 0 -1 -0
    outer loop
      vertex 95 -53 21
      vertex -65 -53 0
      vertex 95 -53 0
    endloop
  endfacet
  facet normal -1 0 0
    outer loop
      vertex 59 -43 0
      vertex 59 52 3
      vertex 59 52 0
    endloop
  endfacet
  facet normal -1 -0 0
    outer loop
      vertex 59 52 3
      vertex 59 -43 0
      vertex 59 -43 3
    endloop
  endfacet
  facet normal 0 -1 0
    outer loop
      vertex -44.5 52 0
      vertex 59 52 3
      vertex -44.5 52 3
    endloop
  endfacet
  facet normal 0 -1 -0
    outer loop
      vertex 59 52 3
      vertex -44.5 52 0
      vertex 59 52 0
    endloop
  endfacet
  facet normal 0 1 -0
    outer loop
      vertex 59 -43 0
      vertex -44.5 -43 3
      vertex 59 -43 3
    endloop
  endfacet
  facet normal 0 1 0
    outer loop
      vertex -44.5 -43 3
      vertex 59 -43 0
      vertex -44.5 -43 0
    endloop
  endfacet
  facet normal -1 0 0
    outer loop
      vertex -46 -46 3
      vertex -46 54 10
      vertex -46 54 3
    endloop
  endfacet
  facet normal -1 -0 0
    outer loop
      vertex -46 54 10
      vertex -46 -46 3
      vertex -46 -46 10
    endloop
  endfacet
  facet normal 0 0 1
    outer loop
      vertex 60.5 -44 10
      vertex 61 54 10
      vertex 60.5 53 10
    endloop
  endfacet
  facet normal 0 0 1
    outer loop
      vertex 61 54 10
      vertex -44.5 53 10
      vertex 60.5 53 10
    endloop
  endfacet
  facet normal 0 0 1
    outer loop
      vertex -44.5 53 10
      vertex -46 54 10
      vertex -44.5 -44 10
    endloop
  endfacet
  facet normal -0 0 1
    outer loop
      vertex -46 54 10
      vertex -44.5 53 10
      vertex 61 54 10
    endloop
  endfacet
  facet normal 0 0 1
    outer loop
      vertex 61 54 10
      vertex 60.5 -44 10
      vertex 61 -46 10
    endloop
  endfacet
  facet normal -0 0 1
    outer loop
      vertex -44.5 -44 10
      vertex 61 -46 10
      vertex 60.5 -44 10
    endloop
  endfacet
  facet normal 0 0 1
    outer loop
      vertex -44.5 -44 10
      vertex -46 -46 10
      vertex 61 -46 10
    endloop
  endfacet
  facet normal 0 0 1
    outer loop
      vertex -46 -46 10
      vertex -44.5 -44 10
      vertex -46 54 10
    endloop
  endfacet
  facet normal 1 -0 0
    outer loop
      vertex 61 -46 10
      vertex 61 54 3
      vertex 61 54 10
    endloop
  endfacet
  facet normal 1 0 0
    outer loop
      vertex 61 54 3
      vertex 61 -46 10
      vertex 61 -46 3
    endloop
  endfacet
  facet normal 0 1 -0
    outer loop
      vertex 61 54 3
      vertex -46 54 10
      vertex 61 54 10
    endloop
  endfacet
  facet normal 0 1 0
    outer loop
      vertex -46 54 10
      vertex 61 54 3
      vertex -46 54 3
    endloop
  endfacet
  facet normal 0 -1 0
    outer loop
      vertex -46 -46 3
      vertex 61 -46 10
      vertex -46 -46 10
    endloop
  endfacet
  facet normal 0 -1 -0
    outer loop
      vertex 61 -46 10
      vertex -46 -46 3
      vertex 61 -46 3
    endloop
  endfacet
  facet normal 1 -0 0
    outer loop
      vertex -44.5 -44 10
      vertex -44.5 53 5
      vertex -44.5 53 10
    endloop
  endfacet
  facet normal 1 0 0
    outer loop
      vertex -44.5 53 5
      vertex -44.5 -44 10
      vertex -44.5 -44 5
    endloop
  endfacet
  facet normal 1 -0 0
    outer loop
      vertex -44.5 -43 3
      vertex -44.5 52 0
      vertex -44.5 52 3
    endloop
  endfacet
  facet normal 1 0 0
    outer loop
      vertex -44.5 52 0
      vertex -44.5 -43 3
      vertex -44.5 -43 0
    endloop
  endfacet
  facet normal -1 0 0
    outer loop
      vertex 60.5 50.5 3
      vertex 60.5 -41.5 3
      vertex 60.5 50.5 5
    endloop
  endfacet
  facet normal -1 0 0
    outer loop
      vertex 60.5 50.5 5
      vertex 60.5 53 10
      vertex 60.5 53 5
    endloop
  endfacet
  facet normal -1 0 0
    outer loop
      vertex 60.5 -41.5 5
      vertex 60.5 50.5 5
      vertex 60.5 -41.5 3
    endloop
  endfacet
  facet normal -1 0 0
    outer loop
      vertex 60.5 50.5 5
      vertex 60.5 -41.5 5
      vertex 60.5 53 10
    endloop
  endfacet
  facet normal -1 0 0
    outer loop
      vertex 60.5 -44 10
      vertex 60.5 -41.5 5
      vertex 60.5 -44 5
    endloop
  endfacet
  facet normal -1 0 0
    outer loop
      vertex 60.5 -41.5 5
      vertex 60.5 -44 10
      vertex 60.5 53 10
    endloop
  endfacet
  facet normal 0 -1 0
    outer loop
      vertex -44.5 53 5
      vertex 60.5 53 10
      vertex -44.5 53 10
    endloop
  endfacet
  facet normal 0 -1 -0
    outer loop
      vertex 60.5 53 10
      vertex -44.5 53 5
      vertex 60.5 53 5
    endloop
  endfacet
  facet normal 0 1 -0
    outer loop
      vertex 60.5 -44 5
      vertex -44.5 -44 10
      vertex 60.5 -44 10
    endloop
  endfacet
  facet normal 0 1 0
    outer loop
      vertex -44.5 -44 10
      vertex 60.5 -44 5
      vertex -44.5 -44 5
    endloop
  endfacet
  facet normal 0 0 1
    outer loop
      vertex 95 62 21
      vertex -62 59 21
      vertex 95 59 21
    endloop
  endfacet
  facet normal 0 0 1
    outer loop
      vertex -62 59 21
      vertex -65 62 21
      vertex -62 -50 21
    endloop
  endfacet
  facet normal -0 0 1
    outer loop
      vertex -65 62 21
      vertex -62 59 21
      vertex 95 62 21
    endloop
  endfacet
  facet normal -0 0 1
    outer loop
      vertex -62 -50 21
      vertex 95 -53 21
      vertex 95 -50 21
    endloop
  endfacet
  facet normal 0 0 1
    outer loop
      vertex -62 -50 21
      vertex -65 -53 21
      vertex 95 -53 21
    endloop
  endfacet
  facet normal 0 0 1
    outer loop
      vertex -65 -53 21
      vertex -62 -50 21
      vertex -65 62 21
    endloop
  endfacet
  facet normal 0 1 -0
    outer loop
      vertex 95 -50 3
      vertex -62 -50 21
      vertex 95 -50 21
    endloop
  endfacet
  facet normal 0 1 0
    outer loop
      vertex -62 -50 21
      vertex 95 -50 3
      vertex -62 -50 3
    endloop
  endfacet
  facet normal 1 -0 0
    outer loop
      vertex -62 -50 21
      vertex -62 59 3
      vertex -62 59 21
    endloop
  endfacet
  facet normal 1 0 0
    outer loop
      vertex -62 59 3
      vertex -62 -50 21
      vertex -62 -50 3
    endloop
  endfacet
  facet normal 0 -1 0
    outer loop
      vertex -62 59 3
      vertex 95 59 21
      vertex -62 59 21
    endloop
  endfacet
  facet normal 0 -1 -0
    outer loop
      vertex 95 59 21
      vertex -62 59 3
      vertex 95 59 3
    endloop
  endfacet
  facet normal 0 0 1
    outer loop
      vertex 60.5 53 5
      vertex 60 50.5 5
      vertex 60.5 50.5 5
    endloop
  endfacet
  facet normal 0 0 1
    outer loop
      vertex 60 50.5 5
      vertex 57 50.5 5
      vertex 60 -41.5 5
    endloop
  endfacet
  facet normal 0 0 1
    outer loop
      vertex 60.5 53 5
      vertex 57 50.5 5
      vertex 60 50.5 5
    endloop
  endfacet
  facet normal -0 0 1
    outer loop
      vertex -44.5 53 5
      vertex 57 50.5 5
      vertex 60.5 53 5
    endloop
  endfacet
  facet normal 0 0 1
    outer loop
      vertex -43 50.5 5
      vertex -44.5 53 5
      vertex -43 -41.5 5
    endloop
  endfacet
  facet normal 0 0 1
    outer loop
      vertex 57 50.5 5
      vertex -44.5 53 5
      vertex -43 50.5 5
    endloop
  endfacet
  facet normal -0 0 1
    outer loop
      vertex 60 -41.5 5
      vertex 60.5 -44 5
      vertex 60.5 -41.5 5
    endloop
  endfacet
  facet normal 0 0 1
    outer loop
      vertex 57 -41.5 5
      vertex 60 -41.5 5
      vertex 57 50.5 5
    endloop
  endfacet
  facet normal -0 0 1
    outer loop
      vertex 57 -41.5 5
      vertex 60.5 -44 5
      vertex 60 -41.5 5
    endloop
  endfacet
  facet normal 0 0 1
    outer loop
      vertex -44.5 -44 5
      vertex 57 -41.5 5
      vertex -43 -41.5 5
    endloop
  endfacet
  facet normal 0 0 1
    outer loop
      vertex 57 -41.5 5
      vertex -44.5 -44 5
      vertex 60.5 -44 5
    endloop
  endfacet
  facet normal 0 0 1
    outer loop
      vertex -44.5 -44 5
      vertex -43 -41.5 5
      vertex -44.5 53 5
    endloop
  endfacet
  facet normal 0 1 -0
    outer loop
      vertex 57 -41.5 3
      vertex -43 -41.5 5
      vertex 57 -41.5 5
    endloop
  endfacet
  facet normal 0 1 0
    outer loop
      vertex -43 -41.5 5
      vertex 57 -41.5 3
      vertex -43 -41.5 3
    endloop
  endfacet
  facet normal 0 1 -0
    outer loop
      vertex 60.5 -41.5 3
      vertex 60 -41.5 5
      vertex 60.5 -41.5 5
    endloop
  endfacet
  facet normal 0 1 0
    outer loop
      vertex 60 -41.5 5
      vertex 60.5 -41.5 3
      vertex 60 -41.5 3
    endloop
  endfacet
  facet normal 1 -0 0
    outer loop
      vertex -43 -41.5 5
      vertex -43 50.5 3
      vertex -43 50.5 5
    endloop
  endfacet
  facet normal 1 0 0
    outer loop
      vertex -43 50.5 3
      vertex -43 -41.5 5
      vertex -43 -41.5 3
    endloop
  endfacet
  facet normal 0 -1 0
    outer loop
      vertex -43 50.5 3
      vertex 57 50.5 5
      vertex -43 50.5 5
    endloop
  endfacet
  facet normal 0 -1 -0
    outer loop
      vertex 57 50.5 5
      vertex -43 50.5 3
      vertex 57 50.5 3
    endloop
  endfacet
  facet normal 0 -1 0
    outer loop
      vertex 60 50.5 3
      vertex 60.5 50.5 5
      vertex 60 50.5 5
    endloop
  endfacet
  facet normal 0 -1 -0
    outer loop
      vertex 60.5 50.5 5
      vertex 60 50.5 3
      vertex 60.5 50.5 3
    endloop
  endfacet
  facet normal -1 0 0
    outer loop
      vertex 57 -41.5 3
      vertex 57 50.5 5
      vertex 57 50.5 3
    endloop
  endfacet
  facet normal -1 -0 0
    outer loop
      vertex 57 50.5 5
      vertex 57 -41.5 3
      vertex 57 -41.5 5
    endloop
  endfacet
  facet normal 1 -0 0
    outer loop
      vertex 60 -41.5 5
      vertex 60 50.5 3
      vertex 60 50.5 5
    endloop
  endfacet
  facet normal 1 0 0
    outer loop
      vertex 60 50.5 3
      vertex 60 -41.5 5
      vertex 60 -41.5 3
    endloop
  endfacet
endsolid OpenSCAD_Model
